<svg id="圖層_1" data-name="圖層 1" xmlns="http://www.w3.org/2000/svg" viewBox="0 0 55.06 113.39"><defs><style>.cls-1{fill:#76aed4;}</style></defs><path class="cls-1" d="M953,511a20.52,20.52,0,0,0-20.5,20.5V576.2A20.51,20.51,0,0,0,953,596.69H967a20.51,20.51,0,0,0,20.5-20.49V531.46a20.43,20.43,0,0,0-6.31-14.78l-1.13-17.75a9.27,9.27,0,0,0,2.39-6.25,9.37,9.37,0,1,0-16.35,6.25l-.76,12Zm28.81,65.24A14.76,14.76,0,0,1,967,591H953a14.76,14.76,0,0,1-14.75-14.75V531.46A14.76,14.76,0,0,1,953,516.71H967l.85,0a14.77,14.77,0,0,1,13.9,14.73Zm-5-83.52a3.62,3.62,0,0,1-1.38,2.84,2.89,2.89,0,0,0-1.09,2.44l.93,14.7a20.17,20.17,0,0,0-4.1-1.29L972,498a2.88,2.88,0,0,0-1.08-2.44,3.59,3.59,0,0,1-1.38-2.84,3.63,3.63,0,1,1,7.25,0Z" transform="translate(-932.47 -483.31)"/><path class="cls-1" d="M968.57,521.41a11.3,11.3,0,0,0-2-.24H953.76a11.09,11.09,0,0,0-11.07,11.07V533a11.08,11.08,0,0,0,11.07,11.07h12.48A11.08,11.08,0,0,0,977.31,533v-.76A11.09,11.09,0,0,0,968.57,521.41Zm3,11.58a5.32,5.32,0,0,1-5.32,5.32H953.76a5.32,5.32,0,0,1-5.32-5.32v-.76a5.33,5.33,0,0,1,5.32-5.32h12.48a5.33,5.33,0,0,1,5.32,5.32Z" transform="translate(-932.47 -483.31)"/><path class="cls-1" d="M948.89,550.73A4.31,4.31,0,1,0,953.2,555,4.31,4.31,0,0,0,948.89,550.73Z" transform="translate(-932.47 -483.31)"/><path class="cls-1" d="M960,550.73a4.31,4.31,0,1,0,4.31,4.31A4.31,4.31,0,0,0,960,550.73Z" transform="translate(-932.47 -483.31)"/><path class="cls-1" d="M971.11,550.73a4.31,4.31,0,1,0,4.31,4.31A4.31,4.31,0,0,0,971.11,550.73Z" transform="translate(-932.47 -483.31)"/><path class="cls-1" d="M948.89,562.76a4.31,4.31,0,1,0,4.31,4.31A4.31,4.31,0,0,0,948.89,562.76Z" transform="translate(-932.47 -483.31)"/><path class="cls-1" d="M960,562.76a4.31,4.31,0,1,0,4.31,4.31A4.31,4.31,0,0,0,960,562.76Z" transform="translate(-932.47 -483.31)"/><path class="cls-1" d="M971.11,562.76a4.31,4.31,0,1,0,4.31,4.31A4.31,4.31,0,0,0,971.11,562.76Z" transform="translate(-932.47 -483.31)"/><path class="cls-1" d="M948.89,575.81a4.31,4.31,0,1,0,4.31,4.31A4.31,4.31,0,0,0,948.89,575.81Z" transform="translate(-932.47 -483.31)"/><path class="cls-1" d="M960,575.81a4.31,4.31,0,1,0,4.31,4.31A4.31,4.31,0,0,0,960,575.81Z" transform="translate(-932.47 -483.31)"/><path class="cls-1" d="M971.11,575.81a4.31,4.31,0,1,0,4.31,4.31A4.31,4.31,0,0,0,971.11,575.81Z" transform="translate(-932.47 -483.31)"/></svg>