<svg id="圖層_1" data-name="圖層 1" xmlns="http://www.w3.org/2000/svg" viewBox="0 0 78.66 78.66"><defs><style>.cls-1{fill:none;stroke:#00a99d;stroke-miterlimit:10;stroke-width:6px;fill-rule:evenodd;}</style></defs><path class="cls-1" d="M947.22,534.53v10.19c0,7,7.4,9.69,12.15,7.26l9.94-5.1a8.12,8.12,0,0,0,0-14.51l-9.94-5.1C954.62,524.84,947.22,527.54,947.22,534.53Z" transform="translate(-921.17 -500.29)"/><path class="cls-1" d="M924.17,516.92a13.62,13.62,0,0,1,13.62-13.63h45.42a13.62,13.62,0,0,1,13.62,13.63v45.41A13.62,13.62,0,0,1,983.21,576H937.79a13.62,13.62,0,0,1-13.62-13.63Z" transform="translate(-921.17 -500.29)"/></svg>