<svg id="圖層_1" data-name="圖層 1" xmlns="http://www.w3.org/2000/svg" viewBox="0 0 68.2 68.25"><defs><style>.cls-1{fill:#00a99d;}</style></defs><path class="cls-1" d="M926.4,548.8l2.9,20.5a5.24,5.24,0,0,0,5.1,4.5,1.7,1.7,0,0,0,.7-.1l20.5-2.9a5.21,5.21,0,0,0,4.4-5.9l-2.9-20.5a5,5,0,0,0-2-3.4,5.25,5.25,0,0,0-3.8-1l-20.5,2.9A5.26,5.26,0,0,0,926.4,548.8Zm25.4-5.3h.2a1.69,1.69,0,0,1,1,.3,1.9,1.9,0,0,1,.7,1.1l2.9,20.5a1.85,1.85,0,0,1-1.5,2l-20.5,2.9a1.85,1.85,0,0,1-2-1.5l-2.9-20.5a1.94,1.94,0,0,1,.3-1.3,1.9,1.9,0,0,1,1.1-.7Z" transform="translate(-926.35 -505.55)"/><path class="cls-1" d="M937.5,566.2h.2a1.8,1.8,0,0,0,1.5-2,21.91,21.91,0,0,1-.2-3l9.5-1.3c.3,1.2.5,2.2.6,2.9a1.77,1.77,0,1,0,3.5-.5,31.29,31.29,0,0,0-1.9-7c-2.6-6.4-6.1-7.3-8.6-6.9s-5.7,2.2-6.4,9a33.54,33.54,0,0,0,.1,7.2A1.73,1.73,0,0,0,937.5,566.2Zm5.1-14.3c2.2-.3,3.8,2,4.9,4.7l-8.3,1.2C939.6,554.2,940.7,552.2,942.6,551.9Z" transform="translate(-926.35 -505.55)"/><path class="cls-1" d="M969.3,539.3a5.71,5.71,0,0,0,3.1-1,5,5,0,0,0,2-3.4l2.9-20.5a5.26,5.26,0,0,0-4.4-5.9l-20.5-2.9a5.13,5.13,0,0,0-3.8,1,5,5,0,0,0-2,3.4l-2.9,20.5a5.13,5.13,0,0,0,1,3.8,5,5,0,0,0,3.4,2l20.5,2.9A1.7,1.7,0,0,0,969.3,539.3Zm-21.9-7a1.52,1.52,0,0,1-.3-1.3l2.9-20.5a1.72,1.72,0,0,1,1.7-1.5h.2l20.5,2.9a1.44,1.44,0,0,1,1.1.7,1.52,1.52,0,0,1,.3,1.3l-2.9,20.5a1.44,1.44,0,0,1-.7,1.1,1.52,1.52,0,0,1-1.3.3l-20.5-2.9A1.37,1.37,0,0,1,947.4,532.3Z" transform="translate(-926.35 -505.55)"/><path class="cls-1" d="M952.6,529.9l10,1.4c.2,0,.5.1.7.1a5,5,0,0,0,5-4.4,4.83,4.83,0,0,0-.8-3.5,4.83,4.83,0,0,0,1.7-3.2,5.17,5.17,0,0,0-4.3-5.8l-10-1.4a1.94,1.94,0,0,0-1.3.3,1.9,1.9,0,0,0-.7,1.1L951,527.9A2,2,0,0,0,952.6,529.9Zm3.6-13.1,8.3,1.2a1.67,1.67,0,1,1-.5,3.3l-8.3-1.2Zm-.9,6.6,8.3,1.2a2.38,2.38,0,0,1,1.1.6,1.38,1.38,0,0,1,.3,1.2,1.69,1.69,0,0,1-1.9,1.4l-8.3-1.2Z" transform="translate(-926.35 -505.55)"/><path class="cls-1" d="M963.8,569.3a5.24,5.24,0,0,0,5.1,4.5,1.7,1.7,0,0,0,.7-.1l20.5-2.9a5.21,5.21,0,0,0,4.4-5.9l-2.9-20.5a5,5,0,0,0-2-3.4,5.25,5.25,0,0,0-3.8-1l-20.5,2.9a5,5,0,0,0-3.4,2,5.25,5.25,0,0,0-1,3.8Zm.9-22.3a1.9,1.9,0,0,1,1.1-.7l20.5-2.9h.2a1.69,1.69,0,0,1,1,.3,1.9,1.9,0,0,1,.7,1.1l2.9,20.5a1.85,1.85,0,0,1-1.5,2l-20.5,2.9a1.85,1.85,0,0,1-2-1.5l-2.9-20.5A3.85,3.85,0,0,1,964.7,547Z" transform="translate(-926.35 -505.55)"/><path class="cls-1" d="M978.2,565.3a4.87,4.87,0,0,0,1.2-.1,8.52,8.52,0,0,0,6.7-5.3,1.71,1.71,0,1,0-3.2-1.2,4.94,4.94,0,0,1-4,3.1,5,5,0,1,1,3.3-8.1,1.71,1.71,0,0,0,2.7-2.1,8.69,8.69,0,0,0-7.9-3.3,8.55,8.55,0,0,0,1.2,17Z" transform="translate(-926.35 -505.55)"/></svg>