<svg id="圖層_1" data-name="圖層 1" xmlns="http://www.w3.org/2000/svg" viewBox="0 0 83.48 92.43"><defs><style>.cls-1{fill:#ef857d;}</style></defs><path class="cls-1" d="M407.63,275.88a5.64,5.64,0,1,0,5.64,5.64A5.64,5.64,0,0,0,407.63,275.88Zm.62,7.52a3,3,0,1,1,3-3A3,3,0,0,1,408.25,283.4Z" transform="translate(-379.05 -251.55)"/><path class="cls-1" d="M432.07,275.88a5.64,5.64,0,1,0,5.64,5.64A5.64,5.64,0,0,0,432.07,275.88Zm.62,7.52a3,3,0,1,1,3-3A3,3,0,0,1,432.69,283.4Z" transform="translate(-379.05 -251.55)"/><path class="cls-1" d="M422.15,251.55h-43.1V303.6A40.37,40.37,0,0,0,419.42,344h43.1V291.92A40.36,40.36,0,0,0,422.15,251.55Zm-27.88,33.57a11,11,0,1,1,11,11A11,11,0,0,1,394.27,285.12Zm41,20.6c-2.06,5-7.75,8.37-14.14,8.37a16.22,16.22,0,0,1-12-5,2.42,2.42,0,0,1,3.61-3.23,11.34,11.34,0,0,0,8.4,3.39c4.38,0,8.36-2.21,9.67-5.38a2.42,2.42,0,0,1,4.47,1.85Zm-5.62-9.64a11,11,0,1,1,11-11A11,11,0,0,1,429.67,296.08Z" transform="translate(-379.05 -251.55)"/></svg>