<svg id="圖層_1" data-name="圖層 1" xmlns="http://www.w3.org/2000/svg" viewBox="0 0 57.23 117.85"><defs><style>.cls-1{fill:#ef857d;}</style></defs><path class="cls-1" d="M413.63,267.46a21.32,21.32,0,0,0-21.3,21.3v46.5a21.33,21.33,0,0,0,21.3,21.3h14.63a21.33,21.33,0,0,0,21.3-21.3v-46.5A21.24,21.24,0,0,0,443,273.4L441.82,255a9.74,9.74,0,1,0-14.5,0l-.8,12.5Zm30,67.8a15.35,15.35,0,0,1-15.33,15.33H413.63a15.35,15.35,0,0,1-15.33-15.33v-46.5a15.35,15.35,0,0,1,15.33-15.33h14.63l.88,0a15.13,15.13,0,0,1,6.5,1.87,15.46,15.46,0,0,1,3.83,3,15.29,15.29,0,0,1,4.12,10.44Zm-5.25-86.81a3.73,3.73,0,0,1-1.44,3,3,3,0,0,0-1.12,2.53l1,15.28a21.21,21.21,0,0,0-4.27-1.34l.89-13.94a3,3,0,0,0-1.13-2.53,3.77,3.77,0,1,1,6.1-3Z" transform="translate(-392.33 -238.71)"/><path class="cls-1" d="M429.85,278.32a11.27,11.27,0,0,0-2-.25H414.46a11.51,11.51,0,0,0-11.5,11.5v.8a11.51,11.51,0,0,0,11.5,11.5h13a11.51,11.51,0,0,0,11.5-11.5v-.8A11.52,11.52,0,0,0,429.85,278.32Zm3.11,12a5.54,5.54,0,0,1-5.53,5.53h-13a5.54,5.54,0,0,1-5.53-5.53v-.8a5.54,5.54,0,0,1,5.53-5.53h13a5.54,5.54,0,0,1,5.53,5.53Z" transform="translate(-392.33 -238.71)"/><path class="cls-1" d="M409.4,308.79a4.48,4.48,0,1,0,4.48,4.48A4.49,4.49,0,0,0,409.4,308.79Z" transform="translate(-392.33 -238.71)"/><path class="cls-1" d="M420.94,308.79a4.48,4.48,0,1,0,4.48,4.48A4.48,4.48,0,0,0,420.94,308.79Z" transform="translate(-392.33 -238.71)"/><path class="cls-1" d="M432.49,308.79a4.48,4.48,0,1,0,4.48,4.48A4.49,4.49,0,0,0,432.49,308.79Z" transform="translate(-392.33 -238.71)"/><path class="cls-1" d="M409.4,321.29a4.48,4.48,0,1,0,4.48,4.48A4.49,4.49,0,0,0,409.4,321.29Z" transform="translate(-392.33 -238.71)"/><path class="cls-1" d="M420.94,321.29a4.48,4.48,0,1,0,4.48,4.48A4.48,4.48,0,0,0,420.94,321.29Z" transform="translate(-392.33 -238.71)"/><path class="cls-1" d="M432.49,321.29a4.48,4.48,0,1,0,4.48,4.48A4.49,4.49,0,0,0,432.49,321.29Z" transform="translate(-392.33 -238.71)"/><path class="cls-1" d="M409.4,334.85a4.48,4.48,0,1,0,4.48,4.48A4.49,4.49,0,0,0,409.4,334.85Z" transform="translate(-392.33 -238.71)"/><path class="cls-1" d="M420.94,334.85a4.48,4.48,0,1,0,4.48,4.48A4.48,4.48,0,0,0,420.94,334.85Z" transform="translate(-392.33 -238.71)"/><path class="cls-1" d="M432.49,334.85a4.48,4.48,0,1,0,4.48,4.48A4.49,4.49,0,0,0,432.49,334.85Z" transform="translate(-392.33 -238.71)"/></svg>