<svg id="圖層_1" data-name="圖層 1" xmlns="http://www.w3.org/2000/svg" viewBox="0 0 68.66 61.29"><defs><style>.cls-1{fill:none;stroke:#43c8d5;stroke-linecap:round;stroke-linejoin:round;stroke-width:2.67px;}</style></defs><path class="cls-1" d="M583.48,1203.65h5.45a2.47,2.47,0,0,1,2.46,2.47V1241" transform="translate(-528.17 -1187.36)"/><path class="cls-1" d="M533.62,1241v-34.88a2.43,2.43,0,0,1,.92-1.93,2.42,2.42,0,0,1,1.53-.54h5.45" transform="translate(-528.17 -1187.36)"/><path class="cls-1" d="M571.17,1241h24a.35.35,0,0,1,.35.34V1244a3.29,3.29,0,0,1-3.29,3.29H532.79a3.29,3.29,0,0,1-3.29-3.29v-2.68a.35.35,0,0,1,.35-.34h24" transform="translate(-528.17 -1187.36)"/><path class="cls-1" d="M571.17,1241v.19a1.14,1.14,0,0,1-1.14,1.14H555a1.14,1.14,0,0,1-1.14-1.14V1241" transform="translate(-528.17 -1187.36)"/><path class="cls-1" d="M540.09,1234.31s-1.12-8.65,8.94-10a20.57,20.57,0,0,1,2.72-.18c4.77,0,5.44-4.5,5.52-6.16" transform="translate(-528.17 -1187.36)"/><path class="cls-1" d="M562.81,1188.69h-.13" transform="translate(-528.17 -1187.36)"/><path class="cls-1" d="M562.57,1188.69h.11a8,8,0,0,0-1.89.25,8.48,8.48,0,0,0-3.45,1.74,14.94,14.94,0,0,0-5,10.94c0,.44,0,.88,0,1.32.07,2,.1,11.88-5.11,11.91,0,0,2.05,3.3,8.21,3.26a11.6,11.6,0,0,0,1.88-.17h0" transform="translate(-528.17 -1187.36)"/><path class="cls-1" d="M562.7,1229.81c-8.94,0-13.12-4.85-13.67-5.53h0" transform="translate(-528.17 -1187.36)"/><path class="cls-1" d="M585.54,1234.31s1.12-8.65-8.94-10a20.57,20.57,0,0,0-2.72-.18c-4.77,0-5.44-4.5-5.52-6.16" transform="translate(-528.17 -1187.36)"/><path class="cls-1" d="M563,1188.69h-.14" transform="translate(-528.17 -1187.36)"/><path class="cls-1" d="M563.06,1188.69H563a8,8,0,0,1,1.89.25,8.48,8.48,0,0,1,3.45,1.74,14.94,14.94,0,0,1,5,10.94c0,.44,0,.88,0,1.32-.07,2-.1,11.88,5.11,11.91,0,0-2.05,3.3-8.21,3.26a11.6,11.6,0,0,1-1.88-.17h0" transform="translate(-528.17 -1187.36)"/><path class="cls-1" d="M576.6,1224.28h0c-.54.68-4.73,5.53-13.67,5.53" transform="translate(-528.17 -1187.36)"/></svg>