<svg id="圖層_1" data-name="圖層 1" xmlns="http://www.w3.org/2000/svg" viewBox="0 0 68.53 62.36"><defs><style>.cls-1{fill:none;stroke:#f9b800;stroke-linecap:round;stroke-miterlimit:10;stroke-width:3px;}</style></defs><circle class="cls-1" cx="35.19" cy="44.89" r="3.85"/><path class="cls-1" d="M555.5,1245.7a7.95,7.95,0,0,1,15.85,0" transform="translate(-528.24 -1186.82)"/><circle class="cls-1" cx="56.9" cy="44.89" r="3.85"/><path class="cls-1" d="M577.21,1245.7a7.95,7.95,0,0,1,15.85,0" transform="translate(-528.24 -1186.82)"/><path class="cls-1" d="M558.08,1202.13v-10a2.08,2.08,0,0,1,2.08-2.08h33a2.08,2.08,0,0,1,2.07,2.08v23.55a2.08,2.08,0,0,1-2.07,2.08h-33" transform="translate(-528.24 -1186.82)"/><circle class="cls-1" cx="13.26" cy="7.88" r="6.38"/><path class="cls-1" d="M535.12,1215.59v9.07a2.7,2.7,0,0,1-2.69,2.69h0a2.69,2.69,0,0,1-2.69-2.69v-13.89a4.15,4.15,0,0,1,4.15-4.15h26.46a3.06,3.06,0,0,1,3.07,3.07h0a3.06,3.06,0,0,1-2.4,3l-13.14,1.94" transform="translate(-528.24 -1186.82)"/><path class="cls-1" d="M535.12,1225v19.53a3.19,3.19,0,0,0,3.19,3.19h0a3.19,3.19,0,0,0,3.19-3.19v-12.32" transform="translate(-528.24 -1186.82)"/><path class="cls-1" d="M547.88,1214.62v29.87a3.19,3.19,0,0,1-3.19,3.19h0a3.19,3.19,0,0,1-3.19-3.19v-12.32" transform="translate(-528.24 -1186.82)"/></svg>