<svg id="圖層_1" data-name="圖層 1" xmlns="http://www.w3.org/2000/svg" viewBox="0 0 139.16 138.62"><defs><style>.cls-1{fill:#43c8d5;}</style></defs><path class="cls-1" d="M352.73,298.13A45.57,45.57,0,0,0,364.5,320.7l20.16,21.23-1.1,21.71a3.52,3.52,0,0,0,3.51,3.7H415a3.53,3.53,0,0,0,3.52-3.53V330.09a30.27,30.27,0,0,0-8.26-20.48,27.76,27.76,0,0,0-14.56-8.19L382.9,288a9.48,9.48,0,0,0-6.95-3h0a9.17,9.17,0,0,0-2.62.37c-2.22-5-1.61-11.75-.83-20.33.06-.66.12-1.32.18-2,.48-5.4-.76-9.47-3.71-12.08-4.2-3.73-9.92-2.66-10.56-2.53a3.52,3.52,0,0,0-2.61,2.34,108.81,108.81,0,0,0-3.44,45.13C352.45,296.59,352.58,297.36,352.73,298.13Zm11.55-42c1.47,1.31,1.56,4.09,1.37,6.2l-.18,2c-.89,9.75-1.67,18.39,2.16,25.38a10.44,10.44,0,0,0,1.33,12.4l16.27,17.13a3.52,3.52,0,1,0,5.11-4.85l-.87-.92-15.4-16.21a3.16,3.16,0,0,1-.81-1.62,3.32,3.32,0,0,1,.81-2.85,3,3,0,0,1,.56-.45,2.51,2.51,0,0,1,1.3-.37,2.55,2.55,0,0,1,1.87.83l3.78,4,9.78,10.3a3.65,3.65,0,0,0,.73.58,1.18,1.18,0,0,0,.19.11l.05,0,.07,0,.2.09.12.05.21.06.13,0,.21,0,.08,0a20.81,20.81,0,0,1,11.8,6.32,23.3,23.3,0,0,1,6.32,15.82v30H390.78l1-19.52a3.53,3.53,0,0,0-1-2.6l-21.2-22.32a38.57,38.57,0,0,1-10-19.08c-.13-.64-.24-1.29-.33-1.91a104.51,104.51,0,0,1,2.5-39.65A4.49,4.49,0,0,1,364.28,256.16Z" transform="translate(-351.36 -228.72)"/><path class="cls-1" d="M483.5,248.37c-.64-.13-6.36-1.2-10.56,2.53-2.95,2.61-4.19,6.68-3.71,12.08.06.68.12,1.34.18,2,.78,8.58,1.39,15.29-.83,20.33a9.17,9.17,0,0,0-2.62-.37h0a9.52,9.52,0,0,0-7,3L446.2,301.42a27.76,27.76,0,0,0-14.56,8.19,30.27,30.27,0,0,0-8.26,20.48v33.72a3.53,3.53,0,0,0,3.52,3.53h27.91a3.52,3.52,0,0,0,3.52-3.7l-1.1-21.71,20.16-21.23a45.57,45.57,0,0,0,11.77-22.57c.15-.77.28-1.53.39-2.29a108.81,108.81,0,0,0-3.44-45.13A3.52,3.52,0,0,0,483.5,248.37Zm-.92,46.49c-.09.62-.2,1.27-.33,1.91a38.57,38.57,0,0,1-10,19.08l-21.2,22.32a3.49,3.49,0,0,0-1,2.6l1,19.52H430.42v-30a23.29,23.29,0,0,1,6.32-15.81,20.81,20.81,0,0,1,11.8-6.32l.08,0,.21,0,.13,0,.21-.07.12,0,.21-.09.06,0,.05,0,.2-.11a3.59,3.59,0,0,0,.72-.58l9.78-10.3,3.78-4A2.55,2.55,0,0,1,466,292a2.52,2.52,0,0,1,1.31.37,3,3,0,0,1,.56.45,3.32,3.32,0,0,1,.81,2.85,3.16,3.16,0,0,1-.81,1.62l-15.4,16.21-.87.92a3.52,3.52,0,0,0,.13,5,3.52,3.52,0,0,0,5-.13l16.27-17.13a10.44,10.44,0,0,0,1.33-12.4c3.83-7,3.05-15.64,2.16-25.38l-.18-2c-.19-2.1-.1-4.87,1.35-6.18a4.32,4.32,0,0,1,2.49-1A104.43,104.43,0,0,1,482.58,294.86Z" transform="translate(-351.36 -228.72)"/><path class="cls-1" d="M379.49,264.19c2.48,7,7.22,14.41,14.1,22A148.25,148.25,0,0,0,419,308.06a3.59,3.59,0,0,0,1.93.57H421a3.54,3.54,0,0,0,1.93-.57,148.25,148.25,0,0,0,25.45-21.87c6.88-7.59,11.63-15,14.1-22,3.26-9.24,2.64-17.78-1.85-25.4a20,20,0,0,0-15.16-9.91c-7.91-.94-16.48,2.26-22.38,8.34L421,239.41l-2.12-2.19c-5.9-6.08-14.47-9.28-22.38-8.34a20,20,0,0,0-15.15,9.91C376.85,246.41,376.23,255,379.49,264.19Zm17.85-28.32a17,17,0,0,1,1.9-.11,21,21,0,0,1,14.58,6.36l4.63,4.78A3.56,3.56,0,0,0,421,248h0a3.55,3.55,0,0,0,2.53-1.08l4.62-4.77c4.33-4.47,10.8-6.92,16.49-6.25a13,13,0,0,1,9.92,6.5c13.64,23.11-24.48,52-33.59,58.49-9.1-6.45-47.23-35.38-33.59-58.49A13,13,0,0,1,397.34,235.87Z" transform="translate(-351.36 -228.72)"/></svg>