<svg id="圖層_1" data-name="圖層 1" xmlns="http://www.w3.org/2000/svg" viewBox="0 0 89.12 91.08"><defs><style>.cls-1{fill:#43c8d5;}.cls-2{fill:#f9b800;}.cls-3{fill:#ef857d;}</style></defs><path class="cls-1" d="M547.55,1198a2,2,0,1,0,2,2A2,2,0,0,0,547.55,1198Zm.58,2a.72.72,0,1,1,0-1.44.72.72,0,1,1,0,1.44Z" transform="translate(-518.11 -1172.2)"/><path class="cls-1" d="M564.9,1190.2H540.49v17.13h4.22a22.81,22.81,0,0,1,16.67,7.22,5.78,5.78,0,0,0,3.54-2,1.49,1.49,0,0,1,2.51,1.61,7.73,7.73,0,0,1-4,2.92,22.8,22.8,0,0,1,4.14,13.14V1263h20.2v-50A22.86,22.86,0,0,0,564.9,1190.2Zm-16.34,13a3.93,3.93,0,1,1,3.94-3.93A3.93,3.93,0,0,1,548.56,1203.21Zm10.25,0a3.93,3.93,0,1,1,3.94-3.93A3.93,3.93,0,0,1,558.81,1203.21Z" transform="translate(-518.11 -1172.2)"/><path class="cls-1" d="M557.8,1198a2,2,0,1,0,2,2A2,2,0,0,0,557.8,1198Zm-.58,2a.72.72,0,1,1,.72-.72A.72.72,0,0,1,557.22,1200Z" transform="translate(-518.11 -1172.2)"/><path class="cls-2" d="M568.57,1179.71a2,2,0,1,0,2,2A2,2,0,0,0,568.57,1179.71Zm.59,2a.72.72,0,1,1,.72-.72A.72.72,0,0,1,569.16,1181.69Z" transform="translate(-518.11 -1172.2)"/><path class="cls-2" d="M584.36,1172.2H559.94v17.42h4.8a22.83,22.83,0,0,1,18.48,9.4c2.81,0,5.35-1.4,6.32-3.44a1.49,1.49,0,1,1,2.69,1.27,9.49,9.49,0,0,1-7.24,5,22.82,22.82,0,0,1,2.62,10.64v50.1h19.62v-67.52A22.87,22.87,0,0,0,584.36,1172.2Zm-14.77,12.73a3.94,3.94,0,1,1,3.93-3.94A3.94,3.94,0,0,1,569.59,1184.93Zm10.25,0a3.94,3.94,0,1,1,3.93-3.94A3.94,3.94,0,0,1,579.84,1184.93Z" transform="translate(-518.11 -1172.2)"/><path class="cls-2" d="M578.83,1179.71a2,2,0,1,0,2,2A2,2,0,0,0,578.83,1179.71Zm-.59,2a.72.72,0,1,1,.72-.72A.72.72,0,0,1,578.24,1181.69Z" transform="translate(-518.11 -1172.2)"/><path class="cls-3" d="M535.22,1222.52a3.38,3.38,0,1,0,3.37,3.37A3.37,3.37,0,0,0,535.22,1222.52Zm.37,4.5a1.8,1.8,0,1,1,1.8-1.8A1.81,1.81,0,0,1,535.59,1227Z" transform="translate(-518.11 -1172.2)"/><path class="cls-3" d="M549.85,1222.52a3.38,3.38,0,1,0,3.38,3.37A3.37,3.37,0,0,0,549.85,1222.52Zm.37,4.5a1.8,1.8,0,1,1,1.81-1.8A1.81,1.81,0,0,1,550.22,1227Z" transform="translate(-518.11 -1172.2)"/><path class="cls-3" d="M543.91,1207.94h-25.8v31.17a24.18,24.18,0,0,0,24.17,24.18h25.81v-31.17A24.19,24.19,0,0,0,543.91,1207.94ZM527.22,1228a6.57,6.57,0,1,1,6.56,6.57A6.56,6.56,0,0,1,527.22,1228Zm24.56,12.34c-1.24,3-4.64,5-8.47,5a9.74,9.74,0,0,1-7.19-3,1.45,1.45,0,0,1,2.16-1.94,6.79,6.79,0,0,0,5,2c2.63,0,5-1.32,5.79-3.22a1.45,1.45,0,0,1,1.9-.78A1.44,1.44,0,0,1,551.78,1240.38Zm-3.36-5.77A6.57,6.57,0,1,1,555,1228,6.57,6.57,0,0,1,548.42,1234.61Z" transform="translate(-518.11 -1172.2)"/></svg>