<svg id="圖層_1" data-name="圖層 1" xmlns="http://www.w3.org/2000/svg" viewBox="0 0 153.99 154"><defs><style>.cls-1{fill:#f7931e;}</style></defs><path class="cls-1" d="M344.06,318.43l6.51,46.28a11.71,11.71,0,0,0,11.59,10.08,11.39,11.39,0,0,0,1.64-.11l46.28-6.5a11.73,11.73,0,0,0,10-13.23l-6.5-46.29a11.72,11.72,0,0,0-13.23-10L354,305.2A11.73,11.73,0,0,0,344.06,318.43Zm57.34-12a3.48,3.48,0,0,1,.55,0,3.92,3.92,0,0,1,2.35.78,3.88,3.88,0,0,1,1.51,2.58L412.32,356a3.91,3.91,0,0,1-3.33,4.41L362.71,367a3.91,3.91,0,0,1-4.41-3.33l-6.5-46.28a3.89,3.89,0,0,1,3.32-4.41Z" transform="translate(-343.95 -220.8)"/><path class="cls-1" d="M369.1,357.78a5.09,5.09,0,0,0,.55,0,3.9,3.9,0,0,0,3.32-4.41c0-.05-.39-2.84-.49-6.69l21.53-3a60.7,60.7,0,0,1,1.36,6.57,3.91,3.91,0,0,0,7.74-1.09,75.08,75.08,0,0,0-4.25-15.72C393.05,319,385.07,317,379.4,317.75s-12.78,5-14.41,20.38a74.09,74.09,0,0,0,.25,16.28A3.9,3.9,0,0,0,369.1,357.78Zm11.38-32.29c4.91-.69,8.57,4.54,11,10.59l-18.75,2.63C373.69,330.53,376.28,326.08,380.48,325.49Z" transform="translate(-343.95 -220.8)"/><path class="cls-1" d="M440.86,297a11.71,11.71,0,0,0,11.57-10.09l6.51-46.28a11.72,11.72,0,0,0-10-13.23l-46.28-6.5a11.7,11.7,0,0,0-13.23,10L383,277.17a11.72,11.72,0,0,0,10,13.23l46.28,6.5A11.69,11.69,0,0,0,440.86,297Zm-49.43-15.87a3.93,3.93,0,0,1-.75-2.89L397.19,232a3.9,3.9,0,0,1,3.86-3.36,3.39,3.39,0,0,1,.55,0l46.28,6.5a3.91,3.91,0,0,1,3.33,4.41l-6.51,46.29a3.84,3.84,0,0,1-1.52,2.57,3.88,3.88,0,0,1-2.89.75L394,282.67A3.91,3.91,0,0,1,391.43,281.15Z" transform="translate(-343.95 -220.8)"/><path class="cls-1" d="M403.22,275.73l22.6,3.17a11,11,0,0,0,1.61.12,11.51,11.51,0,0,0,9.6-17.85A11.51,11.51,0,0,0,431.14,241l-22.6-3.17a3.83,3.83,0,0,0-2.89.75,3.88,3.88,0,0,0-1.52,2.57l-4.24,30.14A3.91,3.91,0,0,0,403.22,275.73Zm8.1-29.6,18.73,2.64a3.7,3.7,0,1,1-1,7.33l-18.73-2.63ZM409.2,261.2l18.74,2.63a3.71,3.71,0,1,1-1,7.34l-18.73-2.63Z" transform="translate(-343.95 -220.8)"/><path class="cls-1" d="M428.34,364.71a11.72,11.72,0,0,0,11.6,10.08,11.26,11.26,0,0,0,1.63-.11l46.29-6.5a11.73,11.73,0,0,0,10-13.23l-6.51-46.29a11.72,11.72,0,0,0-13.23-10l-46.28,6.51a11.7,11.7,0,0,0-10,13.23Zm2-50.26a3.87,3.87,0,0,1,2.58-1.52l46.28-6.5a3.39,3.39,0,0,1,.55,0,3.9,3.9,0,0,1,3.86,3.36l6.5,46.28a3.91,3.91,0,0,1-3.32,4.41L440.49,367a3.9,3.9,0,0,1-4.41-3.33l-6.51-46.28A3.88,3.88,0,0,1,430.32,314.45Z" transform="translate(-343.95 -220.8)"/><path class="cls-1" d="M460.78,355.67a20.07,20.07,0,0,0,2.67-.18,19.17,19.17,0,0,0,15.16-12,3.9,3.9,0,1,0-7.27-2.84,11.31,11.31,0,1,1-1.54-10.95A3.9,3.9,0,1,0,476,325a19.12,19.12,0,1,0-15.23,30.7Z" transform="translate(-343.95 -220.8)"/></svg>