<svg id="圖層_1" data-name="圖層 1" xmlns="http://www.w3.org/2000/svg" viewBox="0 0 108.55 104.57"><defs><style>.cls-1{fill:none;stroke:#fff;stroke-linecap:round;stroke-linejoin:round;stroke-width:5.25px;}</style></defs><path class="cls-1" d="M448.72,266.5h19.89a3.84,3.84,0,0,1,4,3.68v59a3.84,3.84,0,0,1-4,3.68H373.29a3.85,3.85,0,0,1-4-3.68v-59a3.85,3.85,0,0,1,4-3.68h19.83" transform="translate(-366.67 -245.38)"/><line class="cls-1" x1="49.19" y1="87.71" x2="45.23" y2="101.34"/><line class="cls-1" x1="59.38" y1="87.8" x2="63.31" y2="101.34"/><line class="cls-1" x1="36.62" y1="101.94" x2="71.92" y2="101.94"/><path class="cls-1" d="M449.63,310.06a18.16,18.16,0,0,0-8-2.78,32,32,0,0,0-4.08-.25c-7.19,0-8.27-6.73-8.43-9.24a2,2,0,0,1,.56-1.49c3.11-3.18,5.49-8,6.67-13.68,4.56-2.13,4.68-8.76,3.64-10.9a1,1,0,0,0-1.36-.49,4.53,4.53,0,0,0-1.51,1.35h0s-.22-4.05,1-6.39a6.11,6.11,0,0,0,.69-3.27,8.93,8.93,0,0,0-2.9-5.95c-.4-.36-.81-.73-1.2-1.11-7.27-6.93-12.62-7.38-12.62-7.38s-12.37-3.15-12.37,6.73c-8.09,0-7.06,7.66-6.14,11.39a54.21,54.21,0,0,1,1.11,5.95v0h0a6,6,0,0,0-.71-.79,3.1,3.1,0,0,0-.79-.56,1,1,0,0,0-1.36.49c-1,2.14-.93,8.77,3.63,10.9,1.18,5.69,3.57,10.51,6.69,13.68a2,2,0,0,1,.55,1.48c-.14,2.51-1.19,9.25-8.39,9.25a32,32,0,0,0-4.08.25c-15.2,2-13.59,15.05-13.59,15.05" transform="translate(-366.67 -245.38)"/><path class="cls-1" d="M441.66,307.28s-6.21,8.45-20.72,8.45-20.71-8.45-20.71-8.45" transform="translate(-366.67 -245.38)"/><path class="cls-1" d="M455.25,322.33s1.61-13.07-13.59-15.05" transform="translate(-366.67 -245.38)"/></svg>