<svg id="圖層_1" data-name="圖層 1" xmlns="http://www.w3.org/2000/svg" viewBox="0 0 56.14 113.28"><defs><style>.cls-1{fill:#ef857d;}</style></defs><path class="cls-1" d="M449,269.07a27.76,27.76,0,0,0-.33-4.31v0a28.06,28.06,0,0,0-44.88-17.87,3.22,3.22,0,0,0-.41.32,28.05,28.05,0,0,0,3.1,45.94,2.92,2.92,0,0,0-.24,1.15,2.87,2.87,0,0,0,2.87,2.87h3.33v32.57h-3.33a2.87,2.87,0,0,0,0,5.74h1.44a12.29,12.29,0,1,0,20.77,0h1.44a2.87,2.87,0,0,0,0-5.74h-3.33V297.14h3.33a2.87,2.87,0,0,0,2.87-2.87,2.92,2.92,0,0,0-.24-1.15A28.08,28.08,0,0,0,449,269.07ZM423.7,297.14v32.57h-5.51V297.14h5.51Zm-2.76,51.39a6.53,6.53,0,0,1-3.53-12A6.55,6.55,0,0,1,427.49,342,6.55,6.55,0,0,1,420.94,348.53Zm-14.58-96.35c10.27.59,14.25,3.87,18.46,7.34s8.65,7.12,18.41,8.26c0,.43,0,.86,0,1.29a22.29,22.29,0,0,1-.59,5.13c-11.13-.29-15.08-3.54-19.62-7.28s-9.58-7.9-21.66-8.63A22.39,22.39,0,0,1,406.36,252.18Zm14.58-5.44a22.38,22.38,0,0,1,21.13,15.09c-6.77-1.12-10-3.76-13.6-6.74-3.36-2.77-7.05-5.81-13.71-7.48A22.56,22.56,0,0,1,420.94,246.74Zm-1.53,24.61c4.44,3.66,9.42,7.76,21.08,8.5a22.46,22.46,0,0,1-4.95,6.1c-9.84-.58-13.58-3.66-17.88-7.2s-8.84-7.29-19-8.41c0-.42,0-.85,0-1.27a22.17,22.17,0,0,1,.59-5.13C410.79,264.24,415,267.7,419.41,271.35ZM414,283.18c3.27,2.7,6.87,5.66,13.23,7.31a22.16,22.16,0,0,1-6.3.91,22.39,22.39,0,0,1-21.13-15.12C407,277.42,410.43,280.22,414,283.18Z" transform="translate(-392.88 -241)"/></svg>