<svg id="圖層_1" data-name="圖層 1" xmlns="http://www.w3.org/2000/svg" viewBox="0 0 30.63 61.81"><defs><style>.cls-1{fill:#f9b800;}</style></defs><path class="cls-1" d="M578,1202.15a15.21,15.21,0,0,0-.18-2.35v0a15.31,15.31,0,0,0-24.49-9.74,1.84,1.84,0,0,0-.22.17,15.3,15.3,0,0,0,1.69,25.07,1.44,1.44,0,0,0-.13.62,1.56,1.56,0,0,0,1.56,1.57H558v17.78h-1.82a1.57,1.57,0,0,0,0,3.13H557a6.7,6.7,0,1,0,12.37,3.57,6.61,6.61,0,0,0-1-3.57h.79a1.57,1.57,0,1,0,0-3.13H567.3v-17.78h1.82a1.57,1.57,0,0,0,1.57-1.57,1.6,1.6,0,0,0-.13-.62A15.34,15.34,0,0,0,578,1202.15Zm-13.81,15.32v17.78h-3v-17.78h3Zm-1.5,28a3.57,3.57,0,0,1-1.93-6.57,3.55,3.55,0,0,1,3.86,0,3.57,3.57,0,0,1-1.93,6.57Zm-8-52.58c5.6.32,7.77,2.11,10.07,4a17.05,17.05,0,0,0,10.05,4.51c0,.23,0,.47,0,.7a11.73,11.73,0,0,1-.33,2.8c-6.07-.16-8.22-1.93-10.7-4s-5.23-4.31-11.82-4.71A12.27,12.27,0,0,1,554.71,1192.94Zm8-3a12.2,12.2,0,0,1,11.52,8.23,13.92,13.92,0,0,1-7.42-3.67,17.2,17.2,0,0,0-7.48-4.08A12.16,12.16,0,0,1,562.67,1190Zm-.84,13.43a17.43,17.43,0,0,0,11.5,4.64,12.24,12.24,0,0,1-2.7,3.33,14.2,14.2,0,0,1-9.76-3.94,17.34,17.34,0,0,0-10.37-4.58c0-.23,0-.46,0-.7a12.33,12.33,0,0,1,.33-2.8C557.12,1199.52,559.41,1201.4,561.83,1203.4Zm-3,6.45a17.23,17.23,0,0,0,7.22,4,12.15,12.15,0,0,1-15-7.75A14.2,14.2,0,0,1,558.88,1209.85Z" transform="translate(-547.35 -1186.84)"/></svg>