<svg id="圖層_1" data-name="圖層 1" xmlns="http://www.w3.org/2000/svg" viewBox="0 0 70.73 64.83"><defs><style>.cls-1{fill:none;stroke:#43c8d5;stroke-linecap:round;stroke-linejoin:round;stroke-width:2.6px;}</style></defs><path class="cls-1" d="M596.73,1208.49a21.84,21.84,0,1,1-4-12.63A21.71,21.71,0,0,1,596.73,1208.49Z" transform="translate(-527.3 -1185.33)"/><line class="cls-1" x1="47.59" y1="1.3" x2="47.59" y2="45.01"/><line class="cls-1" x1="25.74" y1="23.16" x2="69.43" y2="23.16"/><path class="cls-1" d="M557.52,1195.22a45.92,45.92,0,0,0,34.73,0" transform="translate(-527.3 -1185.33)"/><path class="cls-1" d="M557.52,1221.75a45.92,45.92,0,0,1,34.73,0" transform="translate(-527.3 -1185.33)"/><path class="cls-1" d="M569.28,1187.38c-4.79,6.25-8,13.49-8,21.18s3.18,14.84,8,21" transform="translate(-527.3 -1185.33)"/><path class="cls-1" d="M580.53,1229.6c4.76-6.2,7.94-13.37,7.94-21s-3.19-14.93-8-21.18" transform="translate(-527.3 -1185.33)"/><path class="cls-1" d="M579.3,1236.24v10.93H560.92a1.36,1.36,0,0,0-.65.16,13.81,13.81,0,0,1-12.5.07l-.15-.08a1.43,1.43,0,0,0-.64-.15H528.6v-34" transform="translate(-527.3 -1185.33)"/><path class="cls-1" d="M533.28,1208.58v34H547c2.66,0,3.73,1.8,7.1,1.68m-20.8-35.64a38.79,38.79,0,0,1,13.56,1.48" transform="translate(-527.3 -1185.33)"/><path class="cls-1" d="M574.88,1236.58v6h-13.7c-2.7,0-3.69,1.81-7.1,1.68" transform="translate(-527.3 -1185.33)"/><line class="cls-1" x1="26.78" y1="58.89" x2="26.78" y2="42.03"/></svg>