<svg id="圖層_1" data-name="圖層 1" xmlns="http://www.w3.org/2000/svg" viewBox="0 0 60.57 60.57"><defs><style>.cls-1{fill:#ec6d74;}</style></defs><path class="cls-1" d="M585.11,1213.62h0a25.15,25.15,0,0,0-8.15-11.43,23,23,0,0,0-10.26-4.65,2.92,2.92,0,0,1,.3-2.57,2.19,2.19,0,0,1,1.79-1,1.54,1.54,0,0,0,0-3.07h0a5.25,5.25,0,0,0-4.27,2.29,5.87,5.87,0,0,0-1,3.92l-.44,0h-.23a3.63,3.63,0,0,1-.8-.14,3.43,3.43,0,0,1-2-1.75,3.71,3.71,0,0,1,1.42-4.91,1.54,1.54,0,0,0-1.48-2.69,6.8,6.8,0,0,0-2.67,9,6.72,6.72,0,0,0,.62,1,23.17,23.17,0,0,0-9.46,4.5,25.25,25.25,0,0,0-8.16,11.43h0c-4.32,0-7.84,4-7.84,9s3.52,9,7.84,9h0a25.3,25.3,0,0,0,8.16,11.43,22.89,22.89,0,0,0,28.56,0,25.21,25.21,0,0,0,8.15-11.43h0c4.33,0,7.84-4.05,7.84-9S589.44,1213.62,585.11,1213.62Zm-.77,14.88a1.53,1.53,0,0,0-1.78,1c-2.81,9.25-10.8,15.46-19.89,15.46s-17.09-6.21-19.9-15.46a1.54,1.54,0,0,0-1.46-1.09,1.06,1.06,0,0,0-.31,0,4.3,4.3,0,0,1-.78.08c-2.63,0-4.77-2.67-4.77-5.95s2.14-5.94,4.77-5.94a4.3,4.3,0,0,1,.78.08,1.53,1.53,0,0,0,1.77-1c2.81-9.25,10.8-15.46,19.89-15.47h.46c8.9.2,16.68,6.36,19.44,15.46a1.54,1.54,0,0,0,1.78,1,4.11,4.11,0,0,1,.77-.08c2.63,0,4.77,2.67,4.77,5.94s-2.14,5.95-4.77,5.95A4.11,4.11,0,0,1,584.34,1228.5Z" transform="translate(-532.38 -1187.51)"/><path class="cls-1" d="M571.33,1218.24c-1.73,0-3,1.81-3,4.21s1.31,4.2,3,4.2,3-1.81,3-4.2S573.06,1218.24,571.33,1218.24Z" transform="translate(-532.38 -1187.51)"/><ellipse class="cls-1" cx="21.62" cy="34.93" rx="3.04" ry="4.2"/><path class="cls-1" d="M569.33,1230.24a1.53,1.53,0,0,0-2.06.68c-.44.88-2.2,1.81-4.6,1.81s-4.17-.93-4.61-1.81a1.53,1.53,0,0,0-2.74,1.38c1.07,2.13,3.95,3.5,7.35,3.5s6.28-1.37,7.35-3.5A1.53,1.53,0,0,0,569.33,1230.24Z" transform="translate(-532.38 -1187.51)"/></svg>