<svg id="圖層_1" data-name="圖層 1" xmlns="http://www.w3.org/2000/svg" viewBox="0 0 116.12 116.12"><defs><style>.cls-1{fill:none;stroke:#a8758c;stroke-linecap:round;stroke-linejoin:round;stroke-width:3.78px;}</style></defs><path class="cls-1" d="M903.91,493.94v69.7h37.74A2.89,2.89,0,0,1,943,564l.31.15a28.33,28.33,0,0,0,25.65-.14,2.9,2.9,0,0,1,1.35-.33h2" transform="translate(-902.02 -482.35)"/><polyline class="cls-1" points="105.99 11.6 105.99 46.44 105.99 69.58"/><path class="cls-1" d="M956.23,494c-19.37-12-42.71-9.6-42.71-9.6m0,0v69.7h28.13c5.47,0,7.66,3.7,14.58,3.45" transform="translate(-902.02 -482.35)"/><path class="cls-1" d="M999,484.44S975.6,482,956.23,494m0,63.55c7,.26,9-3.45,14.58-3.45h.08M999,484.44v60.41" transform="translate(-902.02 -482.35)"/><line class="cls-1" x1="54.21" y1="75.24" x2="54.21" y2="11.69"/><path class="cls-1" d="M978.05,540.45l6.69,47.42a.24.24,0,0,0,.42.12l8.3-10.5a.24.24,0,0,1,.39,0l10.94,19a.25.25,0,0,0,.33.09l4.18-2.42,4.18-2.41a.24.24,0,0,0,.09-.33l-10.94-18.94a.24.24,0,0,1,.17-.35l13.25-2a.24.24,0,0,0,.11-.42l-37.73-29.5A.24.24,0,0,0,978.05,540.45Z" transform="translate(-902.02 -482.35)"/><line class="cls-1" x1="67.79" y1="62.18" x2="61.75" y2="65.67"/><line class="cls-1" x1="89.53" y1="49.63" x2="83.5" y2="53.11"/><line class="cls-1" x1="79.79" y1="42.15" x2="77.99" y2="48.89"/><line class="cls-1" x1="67.62" y1="43.76" x2="71.11" y2="49.79"/><line class="cls-1" x1="60.15" y1="53.5" x2="66.88" y2="55.3"/></svg>