<svg id="圖層_1" data-name="圖層 1" xmlns="http://www.w3.org/2000/svg" viewBox="0 0 88.96 101.75"><defs><style>.cls-1{fill:none;stroke:#a8758c;stroke-linecap:round;stroke-linejoin:round;stroke-width:3.78px;}</style></defs><path class="cls-1" d="M936.2,570.72l-.56-2.1-.74-2.75-1.9-7.12a3.87,3.87,0,0,0-4.42-2.85,3.79,3.79,0,0,0-1.59.72,3.64,3.64,0,0,0-4.58-2.64,3.77,3.77,0,0,0-2.22,1.64l-.2-.71a3.87,3.87,0,0,0-4.35-2.87,3.77,3.77,0,0,0-2.53,1.71l-2.57-9.59a3.93,3.93,0,0,0-4.6-2.81A3.78,3.78,0,0,0,903.2,546l5.91,22s-7.56-6.46-10.18-1.92c-1.49,2.57,1.26,5.33,4.41,7.68a92.22,92.22,0,0,1,8.86,7.53c3.16,3,8.35,6.25,13.68,4.82C925.88,586.16,939.55,583.22,936.2,570.72Z" transform="translate(-849.66 -486.65)"/><path class="cls-1" d="M914.55,559.15l-1.44-5.4Z" transform="translate(-849.66 -486.65)"/><path class="cls-1" d="M921.64,561l-1.45-5.42Z" transform="translate(-849.66 -486.65)"/><path class="cls-1" d="M928.69,562.93l-1.7-6.31Z" transform="translate(-849.66 -486.65)"/><path class="cls-1" d="M926.25,546.54V496.65a8.12,8.12,0,0,0-8.12-8.11H859.67a8.12,8.12,0,0,0-8.12,8.11V577a8.12,8.12,0,0,0,8.12,8.11h45.39" transform="translate(-849.66 -486.65)"/><path class="cls-1" d="M917.27,540.35V502.13a3,3,0,0,0-3-3H863.51a3,3,0,0,0-3,3v66a3,3,0,0,0,3,3h27.94" transform="translate(-849.66 -486.65)"/><line class="cls-1" x1="55.89" y1="30.78" x2="22.59" y2="30.78"/><line class="cls-1" x1="40.5" y1="48.15" x2="22.59" y2="48.15"/></svg>