<svg id="圖層_1" data-name="圖層 1" xmlns="http://www.w3.org/2000/svg" viewBox="0 0 63.49 61.81"><defs><style>.cls-1{fill:none;stroke:#915da3;stroke-linecap:round;stroke-linejoin:round;stroke-width:3px;}</style></defs><path class="cls-1" d="M973.88,532.08a2.39,2.39,0,0,1-2.39,2.39H948.07a2.39,2.39,0,0,1-2.39-2.39v-8.62a2.39,2.39,0,0,1,2.39-2.39h23.42a2.39,2.39,0,0,1,2.39,2.39Z" transform="translate(-928.75 -508.72)"/><path class="cls-1" d="M984.74,514.49v50.27a4.27,4.27,0,0,1-4.27,4.27H939.09a4.27,4.27,0,0,1-4.27-4.27V557h1.88a2.68,2.68,0,0,0,0-5.36h-1.88v-7.82h1.88a2.66,2.66,0,0,0,2.68-2.68,2.68,2.68,0,0,0-2.68-2.67h-1.88v-7.82h1.88a2.68,2.68,0,0,0,0-5.36h-1.88V514.49a4.27,4.27,0,0,1,4.27-4.27h41.38A4.27,4.27,0,0,1,984.74,514.49Z" transform="translate(-928.75 -508.72)"/><path class="cls-1" d="M990.75,527.05v11.08a2.21,2.21,0,0,1-2.21,2.21h-3.8v-15.5h3.8A2.21,2.21,0,0,1,990.75,527.05Z" transform="translate(-928.75 -508.72)"/><path class="cls-1" d="M990.75,542.24v5.83a2.2,2.2,0,0,1-2.21,2.2h-1.37" transform="translate(-928.75 -508.72)"/><path class="cls-1" d="M936.7,530.67h-3.77A2.67,2.67,0,0,1,931,526.1a2.64,2.64,0,0,1,1.89-.79h3.77a2.68,2.68,0,0,1,2.68,2.68" transform="translate(-928.75 -508.72)"/><path class="cls-1" d="M939.38,541.16a2.66,2.66,0,0,1-2.68,2.68h-3.77a2.68,2.68,0,0,1-2.68-2.68,2.71,2.71,0,0,1,.79-1.89,2.67,2.67,0,0,1,1.89-.78h3.77A2.68,2.68,0,0,1,939.38,541.16Z" transform="translate(-928.75 -508.72)"/><path class="cls-1" d="M939.38,554.34A2.68,2.68,0,0,1,936.7,557h-3.77a2.68,2.68,0,0,1-2.68-2.68,2.72,2.72,0,0,1,.79-1.9,2.67,2.67,0,0,1,1.89-.78h3.77A2.68,2.68,0,0,1,939.38,554.34Z" transform="translate(-928.75 -508.72)"/></svg>