<svg id="圖層_1" data-name="圖層 1" xmlns="http://www.w3.org/2000/svg" viewBox="0 0 71.61 55.55"><defs><style>.cls-1{fill:none;stroke:#a8758c;stroke-linecap:round;stroke-linejoin:round;stroke-width:3px;}</style></defs><path class="cls-1" d="M949.46,517.47c3.46-.27,7.18-.42,11-.42s7.58.15,11,.42" transform="translate(-924.7 -511.85)"/><path class="cls-1" d="M936.69,519.26c-6.47,1.43-10.49,3.44-10.49,5.67,0,4.35,15.35,7.88,34.3,7.88s34.3-3.53,34.3-7.88c0-2.23-4-4.24-10.49-5.67" transform="translate(-924.7 -511.85)"/><line class="cls-1" x1="1.5" y1="13.08" x2="1.5" y2="42.61"/><line class="cls-1" x1="70.11" y1="13.08" x2="70.11" y2="42.61"/><path class="cls-1" d="M926.2,558c0,4.35,15.35,7.87,34.3,7.87s34.3-3.52,34.3-7.87" transform="translate(-924.7 -511.85)"/><line class="cls-1" x1="1.5" y1="42.61" x2="1.5" y2="46.18"/><line class="cls-1" x1="70.11" y1="42.61" x2="70.11" y2="46.18"/><path class="cls-1" d="M930.41,528.71l2.49,32a.46.46,0,0,0,.88.11L944,533.48a.47.47,0,0,1,.88.07l5.43,30.14a.47.47,0,0,0,.89,0l9.28-30.92" transform="translate(-924.7 -511.85)"/><path class="cls-1" d="M990.59,528.71l-2.49,32a.46.46,0,0,1-.88.11L977,533.48a.47.47,0,0,0-.88.07l-5.43,30.14a.47.47,0,0,1-.89,0l-9.28-30.92" transform="translate(-924.7 -511.85)"/><path class="cls-1" d="M951.7,526.11a3.1,3.1,0,0,0,4-.92,2.53,2.53,0,0,0-1-3.65,3.1,3.1,0,0,0-4,.93A2.52,2.52,0,0,0,951.7,526.11Z" transform="translate(-924.7 -511.85)"/><path class="cls-1" d="M951.7,526.11a3.1,3.1,0,0,0,4-.92,2.53,2.53,0,0,0-1-3.65,3.1,3.1,0,0,0-4,.93A2.52,2.52,0,0,0,951.7,526.11Z" transform="translate(-924.7 -511.85)"/><line class="cls-1" x1="25.98" y1="10.62" x2="9.08" y2="1.5"/><path class="cls-1" d="M969.3,526.11a3.1,3.1,0,0,1-4-.92,2.53,2.53,0,0,1,1-3.65,3.1,3.1,0,0,1,4,.93A2.52,2.52,0,0,1,969.3,526.11Z" transform="translate(-924.7 -511.85)"/><line class="cls-1" x1="45.63" y1="10.62" x2="62.53" y2="1.5"/></svg>