<svg id="圖層_1" data-name="圖層 1" xmlns="http://www.w3.org/2000/svg" viewBox="0 0 70.34 72.34"><defs><style>.cls-1{fill:none;stroke:#c69c6d;stroke-linecap:round;stroke-linejoin:round;stroke-width:3px;}</style></defs><path class="cls-1" d="M971.4,512.11,956.77,519a3,3,0,0,1-2.55,0l-14.64-6.87" transform="translate(-925.33 -503.45)"/><path class="cls-1" d="M939.58,512.11l14.64-6.87a3,3,0,0,1,2.55,0l14.63,6.87" transform="translate(-925.33 -503.45)"/><path class="cls-1" d="M971.4,529.34l-14.63,6.87h-2.55l-14.63-6.87" transform="translate(-925.33 -503.45)"/><line class="cls-1" x1="14.26" y1="8.66" x2="14.26" y2="25.89"/><line class="cls-1" x1="30.16" y1="16.13" x2="30.16" y2="33.36"/><line class="cls-1" x1="46.07" y1="8.66" x2="46.07" y2="25.89"/><path class="cls-1" d="M994.17,551.72l-11.95,5.61a3,3,0,0,1-2.55,0l-11.95-5.61" transform="translate(-925.33 -503.45)"/><path class="cls-1" d="M967.72,551.72l11.95-5.62a3,3,0,0,1,2.55,0l11.95,5.62" transform="translate(-925.33 -503.45)"/><path class="cls-1" d="M994.17,566.05l-11.95,5.61h-2.55l-11.95-5.61" transform="translate(-925.33 -503.45)"/><line class="cls-1" x1="42.39" y1="48.26" x2="42.39" y2="62.59"/><line class="cls-1" x1="55.62" y1="54.47" x2="55.62" y2="68.8"/><line class="cls-1" x1="68.84" y1="48.26" x2="68.84" y2="62.59"/><path class="cls-1" d="M980,533l-25.3,11.89h-2.55L926.83,533" transform="translate(-925.33 -503.45)"/><line class="cls-1" x1="54.65" y1="29.57" x2="46.07" y2="25.54"/><line class="cls-1" x1="14.26" y1="23.58" x2="1.5" y2="29.57"/><path class="cls-1" d="M926.83,561.82l25.3,11.88h2.55l14.67-6.89" transform="translate(-925.33 -503.45)"/><line class="cls-1" x1="1.5" y1="29.57" x2="1.5" y2="58.36"/><line class="cls-1" x1="28.08" y1="42.05" x2="28.08" y2="70.84"/><line class="cls-1" x1="54.65" y1="42.51" x2="54.65" y2="29.57"/></svg>