<svg id="圖層_1" data-name="圖層 1" xmlns="http://www.w3.org/2000/svg" viewBox="0 0 237.83 263.07"><defs><style>.cls-1{fill:#ff71eb;}</style></defs><path class="cls-1" d="M542.57,543H421.52v146.3A116.79,116.79,0,0,0,538.3,806.07H659.35V659.78A116.78,116.78,0,0,0,542.57,543Zm-4.24,97.18a39.41,39.41,0,0,1-41.13,5.09c-3.92-1.79-5.43-5.78-3.72-8l.24-.33c1.7-2.19,5.1-2.42,7.83-1.19a29,29,0,0,0,30.24-3.74c2.44-1.93,5.93-2.59,8.22-.84S541.82,637.37,538.33,640.17Zm-5.58-23.31a19.73,19.73,0,1,1,16.48-22.53A19.74,19.74,0,0,1,532.75,616.86Zm-44,0a19.73,19.73,0,1,1,16.47-22.53A19.74,19.74,0,0,1,488.72,616.86Z" transform="translate(-421.52 -542.99)"/><path class="cls-1" d="M545.16,588.37a10.09,10.09,0,1,0-8.43,11.52A10.1,10.1,0,0,0,545.16,588.37Zm-7.81,4.15a5.31,5.31,0,1,1,4.44-6.06A5.3,5.3,0,0,1,537.35,592.52Z" transform="translate(-421.52 -542.99)"/><path class="cls-1" d="M500.4,588.37A10.09,10.09,0,1,0,492,599.89,10.09,10.09,0,0,0,500.4,588.37Zm-7.8,4.15a5.31,5.31,0,1,1,4.43-6.06A5.31,5.31,0,0,1,492.6,592.52Z" transform="translate(-421.52 -542.99)"/></svg>