<svg id="圖層_1" data-name="圖層 1" xmlns="http://www.w3.org/2000/svg" viewBox="0 0 59.51 64.8"><defs><style>.cls-1{fill:none;stroke:#ef857d;stroke-linecap:round;stroke-linejoin:round;stroke-width:3px;}</style></defs><path class="cls-1" d="M557.74,1192.49c-10.65-6.61-23.5-5.28-23.5-5.28m0,0v38.34h15.48c3,0,4.21,2,8,1.9" transform="translate(-532.74 -1185.6)"/><path class="cls-1" d="M581.24,1187.21s-12.84-1.33-23.5,5.28m0,35c3.85.14,5-1.9,8-1.9h0m15.43-38.34v33.23" transform="translate(-532.74 -1185.6)"/><line class="cls-1" x1="25" y1="41.85" x2="25" y2="6.89"/><path class="cls-1" d="M569.75,1218l3.67,26.09a.14.14,0,0,0,.24.06l4.56-5.77a.13.13,0,0,1,.22,0l6,10.42a.11.11,0,0,0,.17.05l2.3-1.33,2.31-1.33a.12.12,0,0,0,0-.17l-6-10.43a.13.13,0,0,1,.09-.19l7.29-1.07a.13.13,0,0,0,.06-.23L570,1217.9A.13.13,0,0,0,569.75,1218Z" transform="translate(-532.74 -1185.6)"/></svg>