<svg id="圖層_1" data-name="圖層 1" xmlns="http://www.w3.org/2000/svg" viewBox="0 0 62.98 62.98"><defs><style>.cls-1{fill:#ef857d;}</style></defs><path class="cls-1" d="M594,1210.14h0V1210s0,0,0-.08a.13.13,0,0,0,0,0s0-.05,0-.08,0,0,0,0,0,0,0-.07,0,0,0,0L589,1197.84h0l-4.35-10.52a1.29,1.29,0,0,0-1.19-.8,1.26,1.26,0,0,0-1.18.8l-4.32,10.51h0l-4.84,11.81v0l0,.08s0,0,0,0a.22.22,0,0,0,0,.08s0,0,0,.05,0,0,0,.08v7.57c-.54-.37-1.11-.73-1.69-1.07a26.13,26.13,0,0,0-26.9,0,27.76,27.76,0,0,0-12.51,16.82,1.29,1.29,0,0,0,0,.21,28.09,28.09,0,0,0-.85,6.8,1.31,1.31,0,0,0,.37.91,1.28,1.28,0,0,0,.92.38l25.57-.11H573v2.75a1.34,1.34,0,0,0,.52,1l5.22,3.93a1.26,1.26,0,0,0,.77.26h9.24a1.35,1.35,0,0,0,.92-.37l3.94-3.94a1.31,1.31,0,0,0,.37-.92v-34.09S594,1210.15,594,1210.14Zm-10.53-18.91,2.43,5.85H581Zm-7.86,21.53,2.63,2v7.59a25.89,25.89,0,0,0-2.63-2.71Zm-29.86,6a23.48,23.48,0,0,1,24.24,0h0a24.43,24.43,0,0,1,10.93,13.73h-12a10.56,10.56,0,0,0-5.08-7.79h0a10.66,10.66,0,0,0-10.52,0,10.36,10.36,0,0,0-5.08,7.79H534.82A25.18,25.18,0,0,1,545.71,1218.75Zm20.58,13.74H550.77a7.67,7.67,0,0,1,3.8-5.56,8.1,8.1,0,0,1,7.95,0A7.94,7.94,0,0,1,566.29,1232.49Zm11.91,13.17-2.63-2v-2.1h2.63ZM557.83,1239l-24.24.09a25.47,25.47,0,0,1,.53-4H581.6a24.31,24.31,0,0,1,.5,3.91Zm28.25,8h-5.3v-5.39h2.65a1.3,1.3,0,0,0,1.29-1.29,28.19,28.19,0,0,0-.81-6.7,1.19,1.19,0,0,0,0-.22,27.85,27.85,0,0,0-3.08-7.4v-11.3l2.65-2.65,2.65,2.65V1247Zm-1.75-37.71a1.29,1.29,0,0,0-1.82,0l-3.13,3.14-3.53-2.66,4.13-10.08h6.95l4.17,10.08-3.62,2.67Zm7,34.51-2.73,2.74v-31.75l2.73-2Z" transform="translate(-531.01 -1186.51)"/></svg>