<svg id="圖層_1" data-name="圖層 1" xmlns="http://www.w3.org/2000/svg" viewBox="0 0 47.28 72.83"><defs><style>.cls-1{fill:#43c8d5;}</style></defs><path class="cls-1" d="M546.09,1189.13a2,2,0,1,0,2,2A2,2,0,0,0,546.09,1189.13Zm.58,2a.72.72,0,1,1,.72-.72A.72.72,0,0,1,546.67,1191.11Z" transform="translate(-539.03 -1181.33)"/><path class="cls-1" d="M563.44,1181.33H539v17.13h4.21a22.82,22.82,0,0,1,16.68,7.22,5.81,5.81,0,0,0,3.54-2,1.49,1.49,0,1,1,2.51,1.6,7.78,7.78,0,0,1-4,2.93,22.74,22.74,0,0,1,4.14,13.13v32.83h20.2v-50A22.87,22.87,0,0,0,563.44,1181.33Zm-16.34,13a3.94,3.94,0,1,1,3.93-3.94A3.93,3.93,0,0,1,547.1,1194.35Zm10.25,0a3.94,3.94,0,1,1,3.93-3.94A3.93,3.93,0,0,1,557.35,1194.35Z" transform="translate(-539.03 -1181.33)"/><path class="cls-1" d="M556.34,1189.13a2,2,0,1,0,2,2A2,2,0,0,0,556.34,1189.13Zm-.59,2a.72.72,0,1,1,.72-.72A.71.71,0,0,1,555.75,1191.11Z" transform="translate(-539.03 -1181.33)"/></svg>