<svg id="圖層_1" data-name="圖層 1" xmlns="http://www.w3.org/2000/svg" viewBox="0 0 169.91 170.06"><defs><style>.cls-1{fill:none;stroke:#f7931e;stroke-linecap:round;stroke-linejoin:round;stroke-width:7.5px;}</style></defs><polyline class="cls-1" points="164.53 24.98 164.53 70.26 164.53 129.94 143.65 129.94 93.72 129.94"/><polyline class="cls-1" points="54.64 71.54 54.64 14.54 54.64 14.36"/><line class="cls-1" x1="72.47" y1="73.41" x2="72.47" y2="38.88"/><path class="cls-1" d="M502.15,237.58H400.29c-5.34,0-9.66-4.75-9.66-10.61h0c0-5.86,4.32-10.61,9.66-10.61H502.15" transform="translate(-335.99 -212.61)"/><path class="cls-1" d="M499.72,237.58c-5.34,0-9.66-4.75-9.66-10.61h0c0-5.86,4.32-10.61,9.66-10.61" transform="translate(-335.99 -212.61)"/><polygon class="cls-1" points="142.17 72.15 126.92 59.47 111.68 72.15 111.68 24.98 142.17 24.98 142.17 72.15"/><circle class="cls-1" cx="59.53" cy="110.54" r="26.25"/><line class="cls-1" x1="40.96" y1="129.1" x2="3.75" y2="166.31"/></svg>