<svg id="圖層_1" data-name="圖層 1" xmlns="http://www.w3.org/2000/svg" viewBox="0 0 47.28 90.39"><defs><style>.cls-1{fill:#f9b800;}</style></defs><path class="cls-1" d="M547.65,1180.06a2,2,0,1,0,2,2A2,2,0,0,0,547.65,1180.06Zm.59,2a.72.72,0,1,1,.72-.71A.71.71,0,0,1,548.24,1182Z" transform="translate(-539.03 -1172.55)"/><path class="cls-1" d="M563.44,1172.55H539V1190h4.79a22.83,22.83,0,0,1,18.48,9.4c2.81,0,5.35-1.41,6.32-3.45a1.49,1.49,0,0,1,2.7,1.28,9.54,9.54,0,0,1-7.25,5,22.82,22.82,0,0,1,2.62,10.64v50.1h19.62v-67.52A22.87,22.87,0,0,0,563.44,1172.55Zm-14.77,12.72a3.94,3.94,0,1,1,3.93-3.93A3.93,3.93,0,0,1,548.67,1185.27Zm10.25,0a3.94,3.94,0,1,1,3.93-3.93A3.93,3.93,0,0,1,558.92,1185.27Z" transform="translate(-539.03 -1172.55)"/><path class="cls-1" d="M557.91,1180.06a2,2,0,1,0,2,2A2,2,0,0,0,557.91,1180.06Zm-.59,2a.72.72,0,1,1,.72-.71A.71.71,0,0,1,557.32,1182Z" transform="translate(-539.03 -1172.55)"/></svg>