<svg id="圖層_1" data-name="圖層 1" xmlns="http://www.w3.org/2000/svg" viewBox="0 0 171.33 153.33"><defs><style>.cls-1{fill:none;stroke:#fbb03b;stroke-linecap:round;stroke-linejoin:round;stroke-width:6.6px;}</style></defs><path class="cls-1" d="M465.43,309.59l6.63,47a.23.23,0,0,0,.41.11l8.24-10.4a.24.24,0,0,1,.39,0L492,365.07a.23.23,0,0,0,.32.08l4.15-2.39,4.15-2.39a.23.23,0,0,0,.08-.32L489.8,341.28a.24.24,0,0,1,.17-.35L503.11,339a.24.24,0,0,0,.11-.42L465.8,309.37A.23.23,0,0,0,465.43,309.59Z" transform="translate(-335.28 -220.97)"/><line class="cls-1" x1="120.72" y1="91.41" x2="114.73" y2="94.86"/><line class="cls-1" x1="143.57" y1="78.12" x2="137.58" y2="81.57"/><line class="cls-1" x1="133.48" y1="68.58" x2="131.69" y2="75.25"/><line class="cls-1" x1="119.27" y1="70.16" x2="122.73" y2="76.14"/><line class="cls-1" x1="111.43" y1="81.52" x2="118.11" y2="83.31"/><path class="cls-1" d="M496.31,315.77V229.88a5.88,5.88,0,0,0-6.09-5.61H344.67a5.87,5.87,0,0,0-6.09,5.61V336.94a5.86,5.86,0,0,0,6.09,5.6H455.52" transform="translate(-335.28 -220.97)"/><line class="cls-1" x1="74.4" y1="121.93" x2="68.36" y2="149.12"/><line class="cls-1" x1="89.96" y1="122.06" x2="95.97" y2="149.12"/><line class="cls-1" x1="55.21" y1="150.03" x2="109.11" y2="150.03"/><ellipse class="cls-1" cx="82.16" cy="58.77" rx="26.95" ry="26.91"/><polygon class="cls-1" points="97.92 58.77 86.44 65.39 74.96 72.01 74.96 58.77 74.96 45.53 86.44 52.15 97.92 58.77"/><path class="cls-1" d="M349.63,324.46H453.39" transform="translate(-335.28 -220.97)"/><line class="cls-1" x1="23.31" y1="97.66" x2="23.31" y2="109.32"/></svg>