<svg id="圖層_1" data-name="圖層 1" xmlns="http://www.w3.org/2000/svg" viewBox="0 0 76.58 154.53"><defs><style>.cls-1{fill:#fbb03b;}</style></defs><path class="cls-1" d="M459.24,258.66a38,38,0,0,0-.46-5.88v0a38.26,38.26,0,0,0-61.22-24.37,3.39,3.39,0,0,0-.56.44,38.25,38.25,0,0,0,4.22,62.66,3.93,3.93,0,0,0,3.59,5.48h4.55v44.44h-4.55a3.92,3.92,0,0,0,0,7.84h2a16.76,16.76,0,1,0,28.35,0h2a3.92,3.92,0,0,0,0-7.84h-4.55V297h4.55a3.93,3.93,0,0,0,3.59-5.48A38.31,38.31,0,0,0,459.24,258.66ZM424.7,297v44.44h-7.51V297h7.51Zm-3.76,70.12a8.92,8.92,0,1,1,8.93-8.92A8.93,8.93,0,0,1,420.94,367.07ZM401,235.62c14,.8,19.45,5.28,25.19,10,5.55,4.57,11.8,9.71,25.12,11.27,0,.58,0,1.16,0,1.75a30.41,30.41,0,0,1-.81,7c-15.18-.39-20.57-4.83-26.75-9.93S410.76,245,394.28,244A30.78,30.78,0,0,1,401,235.62Zm19.9-7.42a30.52,30.52,0,0,1,28.82,20.59c-9.24-1.53-13.61-5.13-18.55-9.2-4.59-3.78-9.61-7.93-18.7-10.2A30.5,30.5,0,0,1,420.94,228.2Zm-2.09,33.57c6.06,5,12.85,10.59,28.76,11.6a30.6,30.6,0,0,1-6.76,8.33c-13.42-.8-18.52-5-24.39-9.84-5.66-4.66-12.06-9.93-25.92-11.47,0-.57-.05-1.15-.05-1.73a30.48,30.48,0,0,1,.81-7C407.09,252.07,412.81,256.79,418.85,261.77Zm-7.37,16.14c4.47,3.69,9.37,7.72,18.06,10a30.49,30.49,0,0,1-37.42-19.39C402,270.06,406.59,273.88,411.48,277.91Z" transform="translate(-382.65 -220.37)"/></svg>