<svg id="圖層_1" data-name="圖層 1" xmlns="http://www.w3.org/2000/svg" viewBox="0 0 91.38 91.37">
    <defs>
        <style>.cls-1{fill:#00a99d;}</style>
    </defs>
    <path class="cls-1"
          d="M465.62,272.14c-2.15-9.71-7.92-16.08-17.56-18.81a44.8,44.8,0,0,0-12-1.34q-15.18-.09-30.37,0a48,48,0,0,0-10.41,1c-9.46,2.16-15.76,7.78-18.56,17.15a43.74,43.74,0,0,0-1.45,12.37q-.09,15.15,0,30.29a47.32,47.32,0,0,0,1,10.41c2.31,10.19,8.51,16.58,18.7,19a57.61,57.61,0,0,0,12.77,1.09c4.4.06,8.8,0,13.2,0s8.89.05,13.34,0a58.14,58.14,0,0,0,12.07-1c10.3-2.28,16.74-8.51,19.19-18.8a56.42,56.42,0,0,0,1.07-12.84q.07-13.08,0-26.18A57,57,0,0,0,465.62,272.14Zm-7.28,41.5a34.47,34.47,0,0,1-1,8.93c-1.82,6.65-6.22,10.52-12.92,11.76a39.86,39.86,0,0,1-7.14.67c-10.92.08-21.83.06-32.75,0a32.23,32.23,0,0,1-8.57-1c-6.58-1.81-10.41-6.17-11.75-12.79a58.76,58.76,0,0,1-.8-11.54c0-9.4,0-18.8.12-28.2a33.93,33.93,0,0,1,1-8.92c1.82-6.55,6.18-10.36,12.78-11.68,4.15-.82,8.38-.73,12.59-.82,3.68-.06,7.35,0,11,0v-.15c6.38.15,12.75.24,19.13.43a20.89,20.89,0,0,1,9.79,2.42,15.44,15.44,0,0,1,7.67,10.63,37.73,37.73,0,0,1,.8,8.19Q458.42,297.62,458.34,313.64Z"
          transform="translate(-375.26 -251.95)"/>
    <path class="cls-1" d="M420.94,276.7a23.48,23.48,0,1,0,23.48,23.6A23.46,23.46,0,0,0,420.94,276.7Zm0,38.75a15.3,15.3,0,1,1,15.31-15.3A15.28,15.28,0,0,1,420.92,315.45Z"
          transform="translate(-375.26 -251.95)"/>
    <path class="cls-1" d="M444.38,267.12a5.48,5.48,0,1,0,5.65,5.35A5.51,5.51,0,0,0,444.38,267.12Z" transform="translate(-375.26 -251.95)"/>
</svg>
