<svg id="圖層_1" data-name="圖層 1" xmlns="http://www.w3.org/2000/svg" viewBox="0 0 113.28 113.28"><defs><style>.cls-1{fill:#ef857d;}</style></defs><path class="cls-1" d="M475.71,291.41c-14.25-6.27-32.64-9.85-52-10.17V257.75a8.61,8.61,0,1,0-5.75,0v23.49c-19.41.32-37.8,3.9-52.05,10.17A2.87,2.87,0,0,0,367,296.9a2.73,2.73,0,0,0,1.15-.24,100.49,100.49,0,0,1,13.58-4.76v16l-2.9-1.52a2.87,2.87,0,0,0-4.17,3l1.1,6.43-4.66,4.55a2.86,2.86,0,0,0,1.59,4.89l6.45.94L382,332a2.87,2.87,0,0,0,5.15,0l2.88-5.84,6.45-.94a2.87,2.87,0,0,0,1.6-4.89l-4.67-4.55,1.1-6.43a2.87,2.87,0,0,0-4.17-3l-2.89,1.52V290.47a142.83,142.83,0,0,1,18.37-2.84v41.28l-2.59,5.24-6.45.94a2.86,2.86,0,0,0-1.59,4.89l4.67,4.55L398.8,351a2.87,2.87,0,0,0,2.82,3.35A2.89,2.89,0,0,0,403,354l5.77-3,5.77,3a2.87,2.87,0,0,0,4.16-3l-1.1-6.43,4.67-4.55a2.87,2.87,0,0,0-1.59-4.89l-6.45-.94-2.59-5.24v-41.7q4.54-.25,9.19-.26t9.18.26v9l-2.59,5.25-6.45.93a2.88,2.88,0,0,0-1.59,4.9l4.67,4.55-1.1,6.42a2.87,2.87,0,0,0,4.16,3l5.77-3,5.77,3a2.88,2.88,0,0,0,4.17-3l-1.11-6.42,4.67-4.55a2.87,2.87,0,0,0-1.59-4.9l-6.45-.93-2.59-5.25v-8.6a142.83,142.83,0,0,1,18.37,2.84v29.31l-2.89-1.52a2.87,2.87,0,0,0-4.17,3l1.1,6.42-4.66,4.55a2.86,2.86,0,0,0,1.59,4.89l6.45.94,2.88,5.85a2.87,2.87,0,0,0,5.15,0l2.88-5.85,6.45-.94a2.86,2.86,0,0,0,1.59-4.89l-4.66-4.55,1.1-6.42a2.87,2.87,0,0,0-4.17-3l-2.9,1.52V291.9a100.49,100.49,0,0,1,13.58,4.76,2.87,2.87,0,0,0,2.31-5.25Zm-87.35,27.46,1.58,1.55-2.18.31-.28.06a2.87,2.87,0,0,0-1.89,1.51l-.57,1.17-.4.82-.41-.82-.57-1.17a2.87,2.87,0,0,0-1.89-1.51l-.27-.06-2.19-.31,1.58-1.55a2.86,2.86,0,0,0,.83-2.54l-.38-2.18.43.23,1.53.8a2.87,2.87,0,0,0,2.67,0l1.54-.8.42-.23-.38,2.18A2.89,2.89,0,0,0,388.36,318.87Zm24.11,22.6a2.89,2.89,0,0,0-.82,2.55l.37,2.17-2-1a2.82,2.82,0,0,0-1.33-.33,2.89,2.89,0,0,0-1.34.33l-1.95,1,.37-2.17a2.87,2.87,0,0,0-.83-2.55l-1.58-1.54,2.19-.32.27-.05a2.86,2.86,0,0,0,1.89-1.52l1-2,1,2a2.84,2.84,0,0,0,1.89,1.52l.27.05,2.19.32Zm8.32-94.69a2.87,2.87,0,1,1-2.87,2.86A2.87,2.87,0,0,1,420.79,246.78Zm15.8,62a2.86,2.86,0,0,0-.83,2.54l.37,2.18-1.95-1a1.69,1.69,0,0,0-.28-.12,2.78,2.78,0,0,0-2.12,0,1.59,1.59,0,0,0-.27.12l-2,1,.37-2.18a2.88,2.88,0,0,0-.82-2.54l-1.59-1.54,2.19-.32a1.31,1.31,0,0,0,.27-.06,2.85,2.85,0,0,0,1.89-1.51l1-2,1,2a2.87,2.87,0,0,0,1.89,1.51,1.31,1.31,0,0,0,.27.06l2.19.32Zm24.11,22,1.58,1.54-2.19.32a2.46,2.46,0,0,0-.45.11,2.84,2.84,0,0,0-1.71,1.46l-.14.28-.84,1.7-.84-1.7-.13-.28a2.84,2.84,0,0,0-1.71-1.46,2.37,2.37,0,0,0-.46-.11l-2.18-.32,1.58-1.54a2.86,2.86,0,0,0,.83-2.54l-.38-2.18.42.22,1.54.81a2.87,2.87,0,0,0,2.67,0l1.53-.81.43-.22-.38,2.18A2.86,2.86,0,0,0,460.7,330.77Z" transform="translate(-364.15 -241.04)"/></svg>