<svg xmlns="http://www.w3.org/2000/svg" viewBox="0 0 474.02 472.76">
    <defs>
        <style>.cls-1{fill:#ffb900;}.cls-2{fill:#00c8d4;}.cls-3{fill:#ff71eb;}</style>
    </defs>
    <g id="logo" data-name="logo">
        <g id="Layer_1" data-name="Layer 1">
            <path class="cls-1"
                  d="M357.24,0h-121V87.56H258a116.59,116.59,0,0,1,94.59,48.32,42.67,42.67,0,0,0,31.75-17.51c2.71-3.68,7.4-6,11.33-4.38s4.95,8,1.09,13.36a57.94,57.94,0,0,1-35.33,22.76,116.32,116.32,0,0,1,13.35,54.23V472.76H474v-356A116.79,116.79,0,0,0,357.24,0ZM284.72,63.88a19.73,19.73,0,1,1,19.73-19.73A19.73,19.73,0,0,1,284.72,63.88Zm51.46,0a19.73,19.73,0,1,1,19.74-19.73A19.73,19.73,0,0,1,336.18,63.88Z"/>
            <path class="cls-1" d="M279.75,39.66a10.1,10.1,0,1,0,10.1,10.1A10.1,10.1,0,0,0,279.75,39.66Zm3,9.43a3.63,3.63,0,1,1,3.63-3.63A3.64,3.64,0,0,1,282.74,49.09Z"/>
            <path class="cls-2" d="M155.1,146.06a10.1,10.1,0,1,0,10.1,10.1A10.1,10.1,0,0,0,155.1,146.06Zm3,9.43a3.64,3.64,0,1,1,3.63-3.63A3.63,3.63,0,0,1,158.09,155.49Z"/>
            <path class="cls-2"
                  d="M240,105.81h-121V192.4h20.17a116.45,116.45,0,0,1,85.61,37.37,42.32,42.32,0,0,0,17.22-10c3.32-3.14,8.35-4.55,11.93-2.28s3.44,8.78-1.31,13.34a57.74,57.74,0,0,1-17.68,11.58,116.21,116.21,0,0,1,21,66.8V472.76H356.75V222.59A116.78,116.78,0,0,0,240,105.81Zm-79.9,66.05a19.73,19.73,0,1,1,19.73-19.73A19.73,19.73,0,0,1,160.07,171.86Zm51.47,0a19.73,19.73,0,1,1,19.73-19.73A19.73,19.73,0,0,1,211.54,171.86Z"/>
            <path class="cls-2" d="M206.58,147a10.1,10.1,0,1,0,10.09,10.1A10.1,10.1,0,0,0,206.58,147Zm-3,9.43a3.63,3.63,0,1,1,3.63-3.63A3.63,3.63,0,0,1,203.6,156.4Z"/>
            <path class="cls-3"
                  d="M121.05,209.68H0V356A116.79,116.79,0,0,0,116.78,472.76H237.83V326.46A116.78,116.78,0,0,0,121.05,209.68Zm-4.25,97.18A39.43,39.43,0,0,1,75.68,312c-3.92-1.8-5.43-5.79-3.72-7.95l.24-.33c1.7-2.19,5.1-2.42,7.83-1.19a29,29,0,0,0,30.24-3.75c2.44-1.92,5.93-2.58,8.22-.83S120.3,304.05,116.8,306.86Zm-5.57-23.32A19.73,19.73,0,1,1,127.71,261,19.72,19.72,0,0,1,111.23,283.54Zm-44,0A19.73,19.73,0,1,1,83.67,261,19.73,19.73,0,0,1,67.2,283.54Z"/>
            <path class="cls-3" d="M123.64,255.05a10.09,10.09,0,1,0-8.43,11.53A10.1,10.1,0,0,0,123.64,255.05Zm-7.81,4.16a5.31,5.31,0,1,1,4.44-6.07A5.31,5.31,0,0,1,115.83,259.21Z"/>
            <path class="cls-3" d="M78.88,255.05a10.09,10.09,0,1,0-8.42,11.53A10.09,10.09,0,0,0,78.88,255.05Zm-7.8,4.16a5.31,5.31,0,1,1,4.43-6.07A5.32,5.32,0,0,1,71.08,259.21Z"/>
            <path class="cls-1" d="M331.23,39a10.09,10.09,0,1,0,10.09,10.09A10.09,10.09,0,0,0,331.23,39Zm-3,9.42a3.63,3.63,0,1,1,3.63-3.63A3.64,3.64,0,0,1,328.25,48.42Z"/>
        </g>
    </g>
</svg>
