<svg id="圖層_1" data-name="圖層 1" xmlns="http://www.w3.org/2000/svg" viewBox="0 0 62.98 62.98"><defs><style>.cls-1{fill:#43c8d5;}</style></defs><path class="cls-1" d="M594.13,1209.88h0v-.13s0,0,0-.07a.06.06,0,0,0,0,0s0-.06,0-.08a.43.43,0,0,1,0,0,.26.26,0,0,0,0-.08v0l-4.89-11.81h0l-4.35-10.52a1.29,1.29,0,0,0-2.38,0l-4.31,10.51h0l-4.84,11.81v0s0,0,0,.07,0,0,0,.06a.17.17,0,0,0,0,.07s0,0,0,.05,0,.06,0,.08v7.58c-.54-.38-1.11-.74-1.69-1.07a26.13,26.13,0,0,0-26.9,0,27.74,27.74,0,0,0-12.51,16.81.8.8,0,0,0-.05.21,27.66,27.66,0,0,0-.85,6.8,1.35,1.35,0,0,0,.37.92,1.31,1.31,0,0,0,.92.37l25.57-.1h15.14V1244a1.29,1.29,0,0,0,.52,1l5.21,3.94a1.37,1.37,0,0,0,.78.25h9.24a1.35,1.35,0,0,0,.92-.37l3.93-3.94a1.24,1.24,0,0,0,.38-.91v-34.1S594.13,1209.9,594.13,1209.88ZM583.6,1191l2.42,5.84h-4.81Zm-7.86,21.52,2.63,2v7.59a26.91,26.91,0,0,0-2.63-2.71Zm-29.86,6a23.48,23.48,0,0,1,24.24,0s0,0,0,0a24.42,24.42,0,0,1,10.94,13.73h-12a10.55,10.55,0,0,0-5.09-7.8h0a10.69,10.69,0,0,0-10.52,0,10.37,10.37,0,0,0-5.09,7.8H535A25.3,25.3,0,0,1,545.88,1218.49Zm20.58,13.75H550.94a7.7,7.7,0,0,1,3.79-5.57,8.09,8.09,0,0,1,8,0A7.92,7.92,0,0,1,566.46,1232.24Zm11.91,13.16-2.63-2v-2.1h2.63ZM558,1238.73l-24.24.09a23.05,23.05,0,0,1,.53-4h47.47a24.18,24.18,0,0,1,.51,3.91Zm28.24,8H581v-5.39h2.65a1.29,1.29,0,0,0,1.29-1.29,28.71,28.71,0,0,0-.81-6.7,1.41,1.41,0,0,0-.06-.22,27.62,27.62,0,0,0-3.07-7.39V1214.4l2.65-2.64,2.64,2.64v32.3ZM584.5,1209a1.29,1.29,0,0,0-1.82,0l-3.14,3.14-3.52-2.66,4.13-10.08h7l4.17,10.08-3.62,2.67Zm7,34.51-2.74,2.74v-31.75l2.74-2Z" transform="translate(-531.18 -1186.25)"/></svg>