<svg id="圖層_1" data-name="圖層 1" xmlns="http://www.w3.org/2000/svg" viewBox="0 0 61.14 61.27"><defs><style>.cls-1{fill:none;stroke:#ef857d;stroke-linecap:round;stroke-linejoin:round;stroke-width:2.8px;}</style></defs><path class="cls-1" d="M580.7,1234.78l5,8.74a.49.49,0,0,1-.47.73l-2.8-.29a.48.48,0,0,0-.5.3l-1,2.42a.49.49,0,0,1-.88.06l-5.42-9.4-5.43,9.4a.49.49,0,0,1-.87-.06l-1-2.42a.48.48,0,0,0-.5-.3l-2.8.29a.48.48,0,0,1-.47-.73l5-8.74" transform="translate(-532.09 -1187.11)"/><path class="cls-1" d="M585.41,1223.63a2.7,2.7,0,0,0-.59,2,3,3,0,0,1-1.82,3.08,2.54,2.54,0,0,0-1.38,1.39,3,3,0,0,1-3.08,1.81,2.78,2.78,0,0,0-2.06.6,2.94,2.94,0,0,1-3.58,0,2.78,2.78,0,0,0-2.06-.6,3,3,0,0,1-3.08-1.81,2.53,2.53,0,0,0-1.39-1.39,3,3,0,0,1-1.81-3.08,2.7,2.7,0,0,0-.6-2,3,3,0,0,1,0-3.59,2.73,2.73,0,0,0,.6-2.06,3,3,0,0,1,1.81-3.07,2.56,2.56,0,0,0,1.39-1.39,3,3,0,0,1,3.08-1.81,2.78,2.78,0,0,0,2.06-.6,2.91,2.91,0,0,1,3.58,0,2.78,2.78,0,0,0,2.06.6,3,3,0,0,1,3.08,1.81,2.57,2.57,0,0,0,1.38,1.39,3,3,0,0,1,1.82,3.07,2.72,2.72,0,0,0,.59,2.06A2.93,2.93,0,0,1,585.41,1223.63Z" transform="translate(-532.09 -1187.11)"/><circle class="cls-1" cx="42.59" cy="34.73" r="5.9"/><line class="cls-1" x1="45.52" y1="6.51" x2="15.62" y2="6.51"/><line class="cls-1" x1="27.76" y1="40.57" x2="15.61" y2="40.57"/><line class="cls-1" x1="8.14" y1="32.69" x2="8.14" y2="14.04"/><line class="cls-1" x1="53.01" y1="20.47" x2="53.01" y2="14.04"/><path class="cls-1" d="M547.71,1193.62v0a7.48,7.48,0,0,1-7.48,7.49" transform="translate(-532.09 -1187.11)"/><path class="cls-1" d="M547.7,1227.68c0-.13,0-.27,0-.4a7.5,7.5,0,0,0-7.48-7.49" transform="translate(-532.09 -1187.11)"/><path class="cls-1" d="M577.62,1193.62v0a7.48,7.48,0,0,0,7.48,7.49" transform="translate(-532.09 -1187.11)"/><path class="cls-1" d="M585.18,1232.79h4.16a2.5,2.5,0,0,0,2.5-2.5V1191a2.5,2.5,0,0,0-2.5-2.5H536a2.51,2.51,0,0,0-2.51,2.5v39.28a2.51,2.51,0,0,0,2.51,2.5h28.2" transform="translate(-532.09 -1187.11)"/><line class="cls-1" x1="19.55" y1="14.04" x2="41.59" y2="14.04"/><line class="cls-1" x1="19.55" y1="19.7" x2="41.59" y2="19.7"/></svg>