<svg xmlns="http://www.w3.org/2000/svg" viewBox="0 0 20.55 24.51"><defs><style>.cls-1{fill:none;stroke:#ef857d;stroke-linecap:round;stroke-miterlimit:10;stroke-width:1.5px;}.cls-2{fill:#ef857d;}</style></defs><g id="图层_2" data-name="图层 2"><g id="manu"><path class="cls-1" d="M.75,21.16V3.24A2.48,2.48,0,0,1,3.24.75H19.66a.14.14,0,0,1,.14.14V18.42a.14.14,0,0,1-.14.14H3.35a2.6,2.6,0,0,0-2.6,2.6h0a2.59,2.59,0,0,0,2.6,2.6H19.8"/><line class="cls-1" x1="4.77" y1="21.16" x2="18.85" y2="21.16"/><path class="cls-2" d="M11.89,11.41l2.78.39.2,0a1.42,1.42,0,0,0,1.4-1.23,1.39,1.39,0,0,0-.22-1,1.42,1.42,0,0,0-.72-2.48l-2.79-.39a.45.45,0,0,0-.35.09.48.48,0,0,0-.19.32l-.52,3.71A.47.47,0,0,0,11.89,11.41Zm1-3.64,2.3.32a.45.45,0,0,1,.39.51.45.45,0,0,1-.51.39l-2.31-.32Zm-.27,1.85,2.31.33a.44.44,0,0,1,.3.17.42.42,0,0,1,.09.34.45.45,0,0,1-.51.39l-2.31-.33Z"/><path class="cls-2" d="M7.71,15.87l.33,0A2.35,2.35,0,0,0,9.9,14.37.48.48,0,0,0,9,14a1.39,1.39,0,0,1-2.68-.31,1.38,1.38,0,0,1,1.19-1.57,1.4,1.4,0,0,1,1.3.53.48.48,0,0,0,.67.09.47.47,0,0,0,.09-.67,2.35,2.35,0,1,0-1.87,3.78Z"/><path class="cls-2" d="M5.76,8h.07a.48.48,0,0,0,.41-.54,7.93,7.93,0,0,1-.06-.83l2.65-.37c.08.32.14.61.17.81a.49.49,0,0,0,.54.41A.48.48,0,0,0,10,6.91,8.74,8.74,0,0,0,9.43,5C8.71,3.21,7.73,3,7,3.05s-1.57.62-1.77,2.51a8.74,8.74,0,0,0,0,2A.47.47,0,0,0,5.76,8Zm1.4-4c.61-.09,1.06.56,1.37,1.3l-2.31.32C6.33,4.63,6.65,4.08,7.16,4Z"/></g></g></svg>