<svg id="圖層_1" data-name="圖層 1" xmlns="http://www.w3.org/2000/svg" viewBox="0 0 112.88 112.88"><defs><style>.cls-1{fill:#ef857d;}</style></defs><path class="cls-1" d="M364.59,312.88l4.77,33.92a8.59,8.59,0,0,0,8.49,7.4,8.08,8.08,0,0,0,1.2-.09L413,349.34a8.59,8.59,0,0,0,7.31-9.69l-4.77-33.93a8.59,8.59,0,0,0-9.7-7.31l-33.92,4.77A8.6,8.6,0,0,0,364.59,312.88Zm42-8.8a2.69,2.69,0,0,1,.4,0,2.87,2.87,0,0,1,2.83,2.47l4.77,33.92a2.87,2.87,0,0,1-2.44,3.24l-33.92,4.76A2.87,2.87,0,0,1,375,346l-4.76-33.93a2.86,2.86,0,0,1,2.43-3.23Z" transform="translate(-364.5 -241.31)"/><path class="cls-1" d="M382.94,341.72a2.69,2.69,0,0,0,.4,0,2.86,2.86,0,0,0,2.44-3.23,49,49,0,0,1-.36-4.9l15.78-2.22a44.48,44.48,0,0,1,1,4.81,2.86,2.86,0,0,0,5.67-.79,54.6,54.6,0,0,0-3.11-11.53c-4.26-10.52-10.11-12-14.27-11.45s-9.37,3.65-10.56,14.94a54.81,54.81,0,0,0,.18,11.94A2.86,2.86,0,0,0,382.94,341.72Zm8.34-23.67c3.6-.5,6.28,3.33,8.1,7.76l-13.74,1.94C386.3,321.75,388.2,318.48,391.28,318.05Z" transform="translate(-364.5 -241.31)"/><path class="cls-1" d="M435.54,297.18a8.6,8.6,0,0,0,8.49-7.39l4.77-33.93a8.6,8.6,0,0,0-7.31-9.69l-33.93-4.77a8.58,8.58,0,0,0-9.7,7.31l-4.77,33.92a8.59,8.59,0,0,0,7.31,9.7l33.93,4.77A8.2,8.2,0,0,0,435.54,297.18Zm-36.23-11.63a2.87,2.87,0,0,1-.55-2.12l4.77-33.93a2.86,2.86,0,0,1,2.83-2.46,2.6,2.6,0,0,1,.4,0l33.93,4.76a2.88,2.88,0,0,1,2.44,3.24L438.36,289a2.86,2.86,0,0,1-3.23,2.44l-33.93-4.77A2.82,2.82,0,0,1,399.31,285.55Z" transform="translate(-364.5 -241.31)"/><path class="cls-1" d="M408,281.58l16.57,2.32a7.81,7.81,0,0,0,1.18.09,8.45,8.45,0,0,0,7-13.09,8.43,8.43,0,0,0-4.32-14.75l-16.57-2.33a2.83,2.83,0,0,0-2.12.55,2.8,2.8,0,0,0-1.11,1.88l-3.11,22.09A2.87,2.87,0,0,0,408,281.58Zm5.94-21.7,13.73,1.93a2.72,2.72,0,0,1-.75,5.38l-13.74-1.93Zm-1.55,11.05,13.73,1.93a2.71,2.71,0,0,1,2.31,3.06,2.73,2.73,0,0,1-3.07,2.32l-13.73-1.93Z" transform="translate(-364.5 -241.31)"/><path class="cls-1" d="M426.37,346.8a8.6,8.6,0,0,0,8.5,7.4,8.28,8.28,0,0,0,1.2-.09L470,349.34a8.59,8.59,0,0,0,7.31-9.69l-4.77-33.93a8.58,8.58,0,0,0-9.69-7.31l-33.93,4.77a8.59,8.59,0,0,0-7.31,9.7ZM427.82,310a2.82,2.82,0,0,1,1.89-1.11l33.92-4.77a2.81,2.81,0,0,1,2.12.55,2.87,2.87,0,0,1,1.12,1.89l4.76,33.92a2.87,2.87,0,0,1-2.43,3.24l-33.93,4.76A2.86,2.86,0,0,1,432,346l-4.77-33.93A2.82,2.82,0,0,1,427.82,310Z" transform="translate(-364.5 -241.31)"/><path class="cls-1" d="M450.15,340.18a14.58,14.58,0,0,0,2-.14,14,14,0,0,0,11.11-8.79,2.87,2.87,0,1,0-5.34-2.08,8.29,8.29,0,1,1-1.12-8,2.86,2.86,0,1,0,4.55-3.47,14,14,0,1,0-11.16,22.51Z" transform="translate(-364.5 -241.31)"/></svg>