<svg xmlns="http://www.w3.org/2000/svg" viewBox="0 0 296.47 43.75"><defs><style>.cls-1{isolation:isolate;}.cls-2{fill:#f5e5d5;}.cls-3,.cls-5{fill:none;stroke:#ebcbaa;stroke-miterlimit:10;stroke-width:0.3px;}.cls-3,.cls-4{mix-blend-mode:multiply;}</style></defs><g class="cls-1"><g id="圖層_1" data-name="圖層 1"><rect class="cls-2" width="296.47" height="43.75"/><line class="cls-3" x1="0.5" y1="10.91" x2="296.1" y2="10.91"/><line class="cls-3" x1="0.5" y1="21.85" x2="296.1" y2="21.85"/><line class="cls-3" x1="0.5" y1="32.8" x2="296.1" y2="32.8"/><g class="cls-4"><line class="cls-5" x1="10.96" x2="10.96" y2="43.54"/><line class="cls-5" x1="22.86" x2="22.86" y2="43.54"/><line class="cls-5" x1="34.76" x2="34.76" y2="43.54"/><line class="cls-5" x1="46.66" x2="46.66" y2="43.54"/><line class="cls-5" x1="58.55" x2="58.55" y2="43.54"/><line class="cls-5" x1="70.45" x2="70.45" y2="43.54"/><line class="cls-5" x1="82.35" x2="82.35" y2="43.54"/><line class="cls-5" x1="94.25" x2="94.25" y2="43.54"/><line class="cls-5" x1="106.15" x2="106.15" y2="43.54"/><line class="cls-5" x1="118.04" x2="118.04" y2="43.54"/><line class="cls-5" x1="129.94" x2="129.94" y2="43.54"/><line class="cls-5" x1="141.84" x2="141.84" y2="43.54"/><line class="cls-5" x1="153.74" x2="153.74" y2="43.54"/><line class="cls-5" x1="165.64" x2="165.64" y2="43.54"/><line class="cls-5" x1="177.54" x2="177.54" y2="43.54"/><line class="cls-5" x1="189.43" x2="189.43" y2="43.54"/><line class="cls-5" x1="201.33" x2="201.33" y2="43.54"/><line class="cls-5" x1="213.23" x2="213.23" y2="43.54"/><line class="cls-5" x1="225.13" x2="225.13" y2="43.54"/><line class="cls-5" x1="237.03" x2="237.03" y2="43.54"/><line class="cls-5" x1="248.92" x2="248.92" y2="43.54"/><line class="cls-5" x1="260.82" x2="260.82" y2="43.54"/><line class="cls-5" x1="272.72" x2="272.72" y2="43.54"/><line class="cls-5" x1="284.62" x2="284.62" y2="43.54"/></g></g></g></svg>